{"glyphs":{"0":{"ha":854,"x_min":103,"x_max":776,"o":"m 721 293 q 608 69 701 151 q 371 -14 515 -14 q 176 56 250 -14 q 103 240 103 125 q 107 293 103 267 l 158 660 q 272 883 178 800 q 508 967 367 967 q 703 897 629 967 q 776 711 776 828 q 772 660 776 688 l 721 293 m 699 668 q 701 703 701 693 q 645 845 701 790 q 499 900 589 900 q 375 870 432 900 q 281 787 318 840 q 235 668 243 733 l 181 285 q 178 250 178 260 q 234 108 178 163 q 381 53 290 53 q 503 83 446 53 q 597 166 560 113 q 644 285 635 219 l 699 668 z "},"1":{"ha":854,"x_min":81,"x_max":706,"o":"m 89 67 l 360 67 l 472 860 l 201 860 l 207 907 l 236 911 q 529 967 404 929 l 561 967 l 435 67 l 706 67 l 697 0 l 81 0 l 89 67 z "},"2":{"ha":854,"x_min":43,"x_max":765,"o":"m 47 32 q 101 171 60 118 q 224 272 142 224 l 531 454 q 644 558 599 494 q 689 711 689 622 q 638 849 689 797 q 492 900 586 900 q 306 824 379 900 q 218 631 232 747 l 143 631 q 202 806 153 729 q 329 924 251 882 q 500 967 407 967 q 694 897 624 967 q 765 717 765 826 q 706 523 765 600 q 556 390 647 446 l 235 200 q 133 67 149 149 l 682 67 l 674 0 l 43 0 l 47 32 z "},"3":{"ha":854,"x_min":79,"x_max":767,"o":"m 156 251 q 153 219 153 229 q 212 95 153 140 q 371 50 271 50 q 510 78 447 50 q 611 158 574 106 q 649 283 649 211 q 587 410 649 367 q 428 454 525 454 l 321 454 l 331 521 l 431 521 q 558 545 499 521 q 654 619 618 569 q 690 740 690 669 q 635 860 690 819 q 490 900 579 900 q 322 849 392 900 q 239 710 251 799 l 236 690 l 163 690 l 165 710 q 224 847 176 789 q 344 936 272 906 q 500 967 417 967 q 692 910 618 967 q 767 750 767 853 q 717 592 767 647 q 576 493 668 536 l 576 488 q 683 418 643 467 q 722 294 722 369 q 675 131 722 200 q 546 24 628 61 q 363 -14 464 -14 q 158 48 236 -14 q 79 213 79 110 q 82 253 79 239 l 85 276 l 158 276 l 156 251 z "},"4":{"ha":854,"x_min":46,"x_max":728,"o":"m 586 683 q 653 796 626 746 l 679 796 l 614 326 l 728 326 l 718 260 l 604 260 l 568 0 l 490 0 l 526 260 l 46 260 l 56 326 q 169 474 89 361 q 333 724 249 588 q 472 967 418 860 l 550 967 q 417 719 496 850 q 260 480 338 588 q 135 326 183 372 l 536 326 l 586 683 z "},"5":{"ha":854,"x_min":99,"x_max":767,"o":"m 178 293 q 175 251 175 279 q 231 108 175 164 q 386 53 288 53 q 518 92 458 53 q 611 197 578 132 q 644 336 644 263 q 588 485 644 426 q 444 544 531 544 q 317 510 379 544 q 217 421 254 476 l 151 431 l 263 953 l 767 953 l 757 878 l 322 878 l 247 531 q 352 592 296 571 q 464 613 408 613 q 651 542 581 613 q 721 354 721 471 q 678 173 721 257 q 558 38 636 89 q 378 -14 481 -14 q 227 19 290 -14 q 131 111 164 53 q 99 243 99 169 q 103 293 99 268 l 178 293 z "},"6":{"ha":854,"x_min":114,"x_max":771,"o":"m 218 474 q 335 563 265 531 q 479 596 406 596 q 613 564 554 596 q 703 474 671 532 q 735 342 735 415 q 688 156 735 238 q 560 31 640 75 q 382 -14 479 -14 q 188 56 261 -14 q 114 240 114 125 q 118 293 114 267 l 169 660 q 231 821 182 751 q 353 928 279 890 q 514 967 426 967 q 701 899 632 967 q 771 715 771 831 q 767 660 771 689 l 694 660 q 699 706 699 692 q 646 846 699 792 q 504 900 593 900 q 333 835 404 900 q 246 668 261 769 l 218 474 m 458 529 q 324 492 386 529 q 226 392 263 456 q 189 250 189 328 q 245 108 189 163 q 392 53 301 53 q 526 90 465 53 q 624 191 588 126 q 660 335 660 256 q 604 475 660 421 q 458 529 549 529 z "},"7":{"ha":854,"x_min":160,"x_max":825,"o":"m 818 911 q 465 472 610 707 q 304 0 319 236 l 218 0 q 389 472 253 247 q 700 878 525 696 l 160 878 l 171 953 l 825 953 l 818 911 z "},"8":{"ha":854,"x_min":90,"x_max":763,"o":"m 590 489 q 694 415 658 460 q 731 299 731 371 q 688 135 731 206 q 564 25 644 64 q 374 -14 483 -14 q 166 43 242 -14 q 90 208 90 100 q 147 390 90 319 q 297 489 204 460 l 297 494 q 215 563 243 524 q 188 667 188 603 q 229 826 188 758 q 344 930 271 893 q 511 967 418 967 q 695 910 628 967 q 763 754 763 854 q 717 592 763 651 q 590 494 671 532 l 590 489 m 500 900 q 382 874 436 900 q 295 799 328 849 q 263 681 263 749 q 314 565 263 607 q 447 522 365 522 q 566 549 511 522 q 653 625 621 575 q 686 746 686 675 q 637 860 686 819 q 500 900 588 900 m 383 53 q 579 113 503 53 q 656 288 656 174 q 599 411 656 367 q 439 456 542 456 q 241 390 315 456 q 167 218 167 325 q 220 96 167 139 q 383 53 274 53 z "},"9":{"ha":854,"x_min":104,"x_max":767,"o":"m 663 481 q 545 390 615 424 q 401 357 475 357 q 268 389 326 357 q 177 478 210 421 q 144 611 144 536 q 193 795 144 714 q 323 922 242 876 q 499 967 404 967 q 693 897 619 967 q 767 711 767 828 q 711 293 767 688 q 598 69 692 153 q 364 -14 504 -14 q 174 54 244 -14 q 104 238 104 122 q 108 293 104 264 l 181 293 q 176 247 176 263 q 230 107 176 161 q 374 53 283 53 q 547 119 474 53 q 635 285 619 185 l 663 481 m 422 424 q 557 462 494 424 q 656 564 619 500 q 692 703 692 628 q 635 845 692 790 q 489 900 579 900 q 353 863 414 900 q 256 762 292 826 q 221 618 221 697 q 276 478 221 532 q 422 424 332 424 z "},"\u0000":{"ha":0,"x_min":0,"x_max":0,"o":""},"\r":{"ha":339,"x_min":0,"x_max":0,"o":""}," ":{"ha":339,"x_min":0,"x_max":0,"o":""},"A":{"ha":903,"x_min":-50,"x_max":807,"o":"m 660 236 l 157 236 l 26 0 l -50 0 l 478 953 l 547 953 l 807 0 l 725 0 l 660 236 m 194 304 l 642 304 l 497 850 l 492 850 l 194 304 z "},"Á":{"ha":903,"x_min":-50,"x_max":807,"o":"m 481 1042 l 643 1243 l 733 1243 l 732 1239 l 550 1042 l 481 1042 m 660 236 l 157 236 l 26 0 l -50 0 l 478 953 l 547 953 l 807 0 l 725 0 l 660 236 m 194 304 l 642 304 l 497 850 l 492 850 l 194 304 z "},"Ă":{"ha":903,"x_min":-50,"x_max":813,"o":"m 660 236 l 157 236 l 26 0 l -50 0 l 478 953 l 547 953 l 807 0 l 725 0 l 660 236 m 194 304 l 642 304 l 497 850 l 492 850 l 194 304 m 521 1094 q 398 1118 454 1094 q 309 1179 342 1142 q 276 1256 276 1217 q 278 1267 276 1263 l 356 1267 q 413 1190 365 1217 q 531 1163 460 1163 q 656 1190 600 1163 q 735 1267 711 1217 l 813 1267 q 765 1186 807 1226 q 657 1120 722 1146 q 521 1094 592 1094 z "},"Â":{"ha":903,"x_min":-50,"x_max":807,"o":"m 519 1243 l 600 1243 l 757 1042 l 674 1042 l 550 1176 l 388 1042 l 304 1042 l 519 1243 m 660 236 l 157 236 l 26 0 l -50 0 l 478 953 l 547 953 l 807 0 l 725 0 l 660 236 m 194 304 l 642 304 l 497 850 l 492 850 l 194 304 z "},"Ä":{"ha":903,"x_min":-50,"x_max":807,"o":"m 363 1138 l 453 1138 l 440 1042 l 350 1042 l 363 1138 m 607 1138 l 697 1138 l 685 1042 l 594 1042 l 607 1138 m 660 236 l 157 236 l 26 0 l -50 0 l 478 953 l 547 953 l 807 0 l 725 0 l 660 236 m 194 304 l 642 304 l 497 850 l 492 850 l 194 304 z "},"À":{"ha":903,"x_min":-50,"x_max":807,"o":"m 472 1042 l 346 1239 l 347 1243 l 438 1243 l 542 1042 l 472 1042 m 660 236 l 157 236 l 26 0 l -50 0 l 478 953 l 547 953 l 807 0 l 725 0 l 660 236 m 194 304 l 642 304 l 497 850 l 492 850 l 194 304 z "},"Ā":{"ha":903,"x_min":-50,"x_max":807,"o":"m 660 236 l 157 236 l 26 0 l -50 0 l 478 953 l 547 953 l 807 0 l 725 0 l 660 236 m 194 304 l 642 304 l 497 850 l 492 850 l 194 304 m 325 1203 l 336 1265 l 778 1265 l 767 1203 l 325 1203 z "},"Ą":{"ha":903,"x_min":-50,"x_max":882,"o":"m 660 236 l 157 236 l 26 0 l -50 0 l 478 953 l 547 953 l 807 0 l 725 0 l 660 236 m 194 304 l 642 304 l 497 850 l 492 850 l 194 304 m 882 -165 q 760 -199 824 -199 q 674 -179 708 -199 q 639 -115 639 -160 q 663 -52 639 -79 q 729 0 688 -25 l 799 0 l 793 -3 q 739 -44 758 -24 q 719 -93 719 -64 q 735 -128 719 -118 q 774 -139 750 -139 q 869 -119 808 -139 l 882 -165 z "},"Å":{"ha":903,"x_min":-50,"x_max":807,"o":"m 681 1160 q 633 1047 681 1094 q 519 1000 586 1000 q 432 1034 467 1000 q 397 1121 397 1068 q 420 1201 397 1165 q 481 1258 443 1238 q 560 1279 518 1279 q 646 1245 611 1279 q 681 1160 681 1211 m 526 1050 q 599 1081 568 1050 q 631 1153 631 1111 q 608 1208 631 1186 q 553 1229 586 1229 q 479 1199 511 1229 q 447 1126 447 1168 q 470 1072 447 1093 q 526 1050 493 1050 m 660 236 l 157 236 l 26 0 l -50 0 l 478 953 l 547 953 l 807 0 l 725 0 l 660 236 m 194 304 l 642 304 l 497 850 l 492 850 l 194 304 z "},"Ã":{"ha":903,"x_min":-50,"x_max":807,"o":"m 788 1156 q 744 1078 782 1114 q 632 1042 706 1042 q 575 1047 601 1042 q 508 1065 549 1053 q 406 1086 446 1086 q 351 1076 371 1086 q 321 1042 331 1065 l 269 1042 q 313 1119 275 1083 q 425 1156 351 1156 q 482 1150 456 1156 q 549 1132 508 1144 q 651 1111 611 1111 q 706 1122 686 1111 q 736 1156 726 1132 l 788 1156 m 660 236 l 157 236 l 26 0 l -50 0 l 478 953 l 547 953 l 807 0 l 725 0 l 660 236 m 194 304 l 642 304 l 497 850 l 492 850 l 194 304 z "},"Æ":{"ha":1363,"x_min":-46,"x_max":1213,"o":"m 728 0 l 663 236 l 171 236 l 40 0 l -46 0 l 483 953 l 1199 953 l 1182 886 l 565 886 l 665 519 l 1128 519 l 1128 453 l 683 453 l 789 67 l 1200 67 l 1213 0 l 728 0 m 208 304 l 644 304 l 501 844 l 497 843 l 208 304 z "},"B":{"ha":906,"x_min":71,"x_max":804,"o":"m 586 953 q 698 926 649 953 q 776 853 747 899 q 804 750 804 807 q 742 579 804 642 q 604 499 679 517 l 603 490 q 710 439 658 482 q 763 300 763 396 q 722 151 763 221 q 610 41 681 82 q 460 0 540 0 l 71 0 l 206 953 l 586 953 m 511 519 q 616 548 567 519 q 695 625 665 576 q 725 731 725 674 q 679 842 725 799 q 563 886 633 886 l 271 886 l 219 519 l 511 519 m 461 67 q 571 96 519 67 q 654 176 622 125 q 686 286 686 226 q 638 405 686 357 q 515 453 589 453 l 210 453 l 156 67 l 461 67 z "},"C":{"ha":919,"x_min":79,"x_max":828,"o":"m 786 349 q 648 69 758 153 q 382 -14 538 -14 q 158 58 238 -14 q 79 310 79 129 q 94 494 79 381 q 238 864 129 761 q 519 967 347 967 q 828 689 828 967 q 821 603 828 654 l 747 603 q 753 675 753 638 q 510 900 753 900 q 288 816 374 900 q 171 511 201 732 q 153 315 153 385 q 215 110 153 168 q 392 53 276 53 q 713 349 671 53 l 786 349 z "},"Ć":{"ha":919,"x_min":79,"x_max":828,"o":"m 786 349 q 648 69 758 153 q 382 -14 538 -14 q 158 58 238 -14 q 79 310 79 129 q 94 494 79 381 q 238 864 129 761 q 519 967 347 967 q 828 689 828 967 q 821 603 828 654 l 747 603 q 753 675 753 638 q 510 900 753 900 q 288 816 374 900 q 171 511 201 732 q 153 315 153 385 q 215 110 153 168 q 392 53 276 53 q 713 349 671 53 l 786 349 m 500 1042 l 663 1243 l 753 1243 l 751 1239 l 569 1042 l 500 1042 z "},"Č":{"ha":919,"x_min":79,"x_max":828,"o":"m 786 349 q 648 69 758 153 q 382 -14 538 -14 q 158 58 238 -14 q 79 310 79 129 q 94 494 79 381 q 238 864 129 761 q 519 967 347 967 q 828 689 828 967 q 821 603 828 654 l 747 603 q 753 675 753 638 q 510 900 753 900 q 288 816 374 900 q 171 511 201 732 q 153 315 153 385 q 215 110 153 168 q 392 53 276 53 q 713 349 671 53 l 786 349 m 344 1243 l 428 1243 l 551 1108 l 714 1243 l 797 1243 l 582 1042 l 501 1042 l 344 1243 z "},"Ç":{"ha":919,"x_min":79,"x_max":828,"o":"m 786 349 q 648 69 758 153 q 382 -14 538 -14 q 158 58 238 -14 q 79 310 79 129 q 94 494 79 381 q 238 864 129 761 q 519 967 347 967 q 828 689 828 967 q 821 603 828 654 l 747 603 q 753 675 753 638 q 510 900 753 900 q 288 816 374 900 q 171 511 201 732 q 153 315 153 385 q 215 110 153 168 q 392 53 276 53 q 713 349 671 53 l 786 349 m 215 -192 q 308 -210 246 -210 q 390 -190 356 -210 q 425 -126 425 -171 q 403 -85 425 -100 q 353 -71 382 -71 l 322 -71 l 329 -24 q 452 -42 408 -24 q 496 -125 496 -61 q 438 -240 496 -206 q 313 -274 379 -274 q 207 -256 251 -274 l 215 -192 z "},"D":{"ha":940,"x_min":71,"x_max":825,"o":"m 206 953 l 511 953 q 741 878 657 953 q 825 625 825 803 q 811 460 825 564 q 666 104 779 208 q 376 0 553 0 l 71 0 l 206 953 m 386 67 q 613 151 522 67 q 735 447 704 236 q 751 613 751 565 q 687 824 751 761 q 501 886 622 886 l 271 886 l 156 67 l 386 67 z "},"Ð":{"ha":947,"x_min":14,"x_max":843,"o":"m 151 443 l 14 443 l 22 510 l 161 510 l 224 953 l 529 953 q 759 878 675 953 q 843 625 843 803 q 829 460 843 564 q 684 104 797 208 q 394 0 571 0 l 89 0 l 151 443 m 404 67 q 631 151 540 67 q 753 447 722 236 q 769 613 769 565 q 705 824 769 761 q 519 886 640 886 l 289 886 l 236 510 l 475 510 l 465 443 l 226 443 l 174 67 l 404 67 z "},"Ď":{"ha":940,"x_min":71,"x_max":825,"o":"m 206 953 l 511 953 q 741 878 657 953 q 825 625 825 803 q 811 460 825 564 q 666 104 779 208 q 376 0 553 0 l 71 0 l 206 953 m 386 67 q 613 151 522 67 q 735 447 704 236 q 751 613 751 565 q 687 824 751 761 q 501 886 622 886 l 271 886 l 156 67 l 386 67 m 286 1243 l 369 1243 l 493 1108 l 656 1243 l 739 1243 l 524 1042 l 443 1042 l 286 1243 z "},"Đ":{"ha":947,"x_min":14,"x_max":843,"o":"m 151 443 l 14 443 l 22 510 l 161 510 l 224 953 l 529 953 q 759 878 675 953 q 843 625 843 803 q 829 460 843 564 q 684 104 797 208 q 394 0 571 0 l 89 0 l 151 443 m 404 67 q 631 151 540 67 q 753 447 722 236 q 769 613 769 565 q 705 824 769 761 q 519 886 640 886 l 289 886 l 236 510 l 475 510 l 465 443 l 226 443 l 174 67 l 404 67 z "},"E":{"ha":822,"x_min":71,"x_max":794,"o":"m 71 0 l 206 953 l 794 953 l 776 886 l 271 886 l 219 519 l 663 519 l 653 453 l 210 453 l 156 67 l 668 67 l 668 0 l 71 0 z "},"É":{"ha":822,"x_min":71,"x_max":794,"o":"m 464 1042 l 626 1243 l 717 1243 l 715 1239 l 533 1042 l 464 1042 m 71 0 l 206 953 l 794 953 l 776 886 l 271 886 l 219 519 l 663 519 l 653 453 l 210 453 l 156 67 l 668 67 l 668 0 l 71 0 z "},"Ě":{"ha":822,"x_min":71,"x_max":794,"o":"m 71 0 l 206 953 l 794 953 l 776 886 l 271 886 l 219 519 l 663 519 l 653 453 l 210 453 l 156 67 l 668 67 l 668 0 l 71 0 m 296 1243 l 379 1243 l 503 1108 l 665 1243 l 749 1243 l 533 1042 l 453 1042 l 296 1243 z "},"Ê":{"ha":822,"x_min":71,"x_max":794,"o":"m 492 1243 l 572 1243 l 729 1042 l 646 1042 l 522 1176 l 360 1042 l 276 1042 l 492 1243 m 71 0 l 206 953 l 794 953 l 776 886 l 271 886 l 219 519 l 663 519 l 653 453 l 210 453 l 156 67 l 668 67 l 668 0 l 71 0 z "},"Ë":{"ha":822,"x_min":71,"x_max":794,"o":"m 365 1138 l 456 1138 l 443 1042 l 353 1042 l 365 1138 m 610 1138 l 700 1138 l 688 1042 l 597 1042 l 610 1138 m 71 0 l 206 953 l 794 953 l 776 886 l 271 886 l 219 519 l 663 519 l 653 453 l 210 453 l 156 67 l 668 67 l 668 0 l 71 0 z "},"Ė":{"ha":822,"x_min":71,"x_max":794,"o":"m 71 0 l 206 953 l 794 953 l 776 886 l 271 886 l 219 519 l 663 519 l 653 453 l 210 453 l 156 67 l 668 67 l 668 0 l 71 0 m 483 1182 l 574 1182 l 561 1086 l 471 1086 l 483 1182 z "},"È":{"ha":822,"x_min":71,"x_max":794,"o":"m 474 1042 l 347 1239 l 349 1243 l 439 1243 l 543 1042 l 474 1042 m 71 0 l 206 953 l 794 953 l 776 886 l 271 886 l 219 519 l 663 519 l 653 453 l 210 453 l 156 67 l 668 67 l 668 0 l 71 0 z "},"Ē":{"ha":822,"x_min":71,"x_max":794,"o":"m 71 0 l 206 953 l 794 953 l 776 886 l 271 886 l 219 519 l 663 519 l 653 453 l 210 453 l 156 67 l 668 67 l 668 0 l 71 0 m 308 1203 l 319 1265 l 761 1265 l 750 1203 l 308 1203 z "},"Ę":{"ha":822,"x_min":71,"x_max":794,"o":"m 71 0 l 206 953 l 794 953 l 776 886 l 271 886 l 219 519 l 663 519 l 653 453 l 210 453 l 156 67 l 668 67 l 668 0 l 71 0 m 714 -165 q 592 -199 656 -199 q 506 -179 540 -199 q 471 -115 471 -160 q 495 -52 471 -79 q 561 0 519 -25 l 631 0 l 625 -3 q 571 -44 590 -24 q 551 -93 551 -64 q 567 -128 551 -118 q 606 -139 582 -139 q 701 -119 640 -139 l 714 -165 z "},"F":{"ha":767,"x_min":71,"x_max":769,"o":"m 751 886 l 271 886 l 219 519 l 626 519 l 617 453 l 210 453 l 146 0 l 71 0 l 206 953 l 769 953 l 751 886 z "},"G":{"ha":938,"x_min":79,"x_max":829,"o":"m 404 421 l 413 486 l 804 486 l 760 165 q 748 58 751 104 q 744 0 744 13 l 693 0 q 690 41 692 8 q 689 128 689 74 q 562 21 640 56 q 396 -14 483 -14 q 162 57 244 -14 q 79 310 79 128 q 94 494 79 381 q 238 864 129 761 q 519 967 347 967 q 743 906 657 967 q 829 700 829 846 q 824 624 829 661 l 750 624 q 754 686 754 657 q 686 851 754 803 q 510 900 618 900 q 288 816 374 900 q 171 511 201 732 q 153 315 153 385 q 218 110 153 168 q 406 53 283 53 q 608 119 521 53 q 717 349 696 186 l 726 421 l 404 421 z "},"Ğ":{"ha":938,"x_min":79,"x_max":829,"o":"m 404 421 l 413 486 l 804 486 l 760 165 q 748 58 751 104 q 744 0 744 13 l 693 0 q 690 41 692 8 q 689 128 689 74 q 562 21 640 56 q 396 -14 483 -14 q 162 57 244 -14 q 79 310 79 128 q 94 494 79 381 q 238 864 129 761 q 519 967 347 967 q 743 906 657 967 q 829 700 829 846 q 824 624 829 661 l 750 624 q 754 686 754 657 q 686 851 754 803 q 510 900 618 900 q 288 816 374 900 q 171 511 201 732 q 153 315 153 385 q 218 110 153 168 q 406 53 283 53 q 608 119 521 53 q 717 349 696 186 l 726 421 l 404 421 m 507 1094 q 384 1118 440 1094 q 295 1179 328 1142 q 263 1256 263 1217 q 264 1267 263 1263 l 342 1267 q 399 1190 351 1217 q 517 1163 446 1163 q 642 1190 586 1163 q 721 1267 697 1217 l 799 1267 q 751 1186 793 1226 q 643 1120 708 1146 q 507 1094 578 1094 z "},"Ģ":{"ha":938,"x_min":79,"x_max":829,"o":"m 404 421 l 413 486 l 804 486 l 760 165 q 748 58 751 104 q 744 0 744 13 l 693 0 q 690 41 692 8 q 689 128 689 74 q 562 21 640 56 q 396 -14 483 -14 q 162 57 244 -14 q 79 310 79 128 q 94 494 79 381 q 238 864 129 761 q 519 967 347 967 q 743 906 657 967 q 829 700 829 846 q 824 624 829 661 l 750 624 q 754 686 754 657 q 686 851 754 803 q 510 900 618 900 q 288 816 374 900 q 171 511 201 732 q 153 315 153 385 q 218 110 153 168 q 406 53 283 53 q 608 119 521 53 q 717 349 696 186 l 726 421 l 404 421 m 324 -347 q 351 -277 333 -325 q 376 -207 368 -229 l 343 -207 l 356 -111 l 446 -111 l 435 -192 l 371 -347 l 324 -347 z "},"H":{"ha":963,"x_min":71,"x_max":871,"o":"m 661 0 l 725 453 l 210 453 l 146 0 l 71 0 l 206 953 l 281 953 l 219 519 l 735 519 l 796 953 l 871 953 l 736 0 l 661 0 z "},"I":{"ha":507,"x_min":17,"x_max":446,"o":"m 151 953 l 446 953 l 436 885 l 326 885 l 211 68 l 321 68 l 311 0 l 17 0 l 26 68 l 136 68 l 251 885 l 142 885 l 151 953 z "},"Í":{"ha":507,"x_min":17,"x_max":522,"o":"m 269 1042 l 432 1243 l 522 1243 l 521 1239 l 339 1042 l 269 1042 m 151 953 l 446 953 l 436 885 l 326 885 l 211 68 l 321 68 l 311 0 l 17 0 l 26 68 l 136 68 l 251 885 l 142 885 l 151 953 z "},"Î":{"ha":507,"x_min":17,"x_max":538,"o":"m 300 1243 l 381 1243 l 538 1042 l 454 1042 l 331 1176 l 168 1042 l 85 1042 l 300 1243 m 151 953 l 446 953 l 436 885 l 326 885 l 211 68 l 321 68 l 311 0 l 17 0 l 26 68 l 136 68 l 251 885 l 142 885 l 151 953 z "},"Ï":{"ha":507,"x_min":17,"x_max":489,"o":"m 154 1139 l 244 1139 l 232 1043 l 142 1043 l 154 1139 m 399 1139 l 489 1139 l 476 1043 l 386 1043 l 399 1139 m 151 953 l 446 953 l 436 885 l 326 885 l 211 68 l 321 68 l 311 0 l 17 0 l 26 68 l 136 68 l 251 885 l 142 885 l 151 953 z "},"İ":{"ha":507,"x_min":17,"x_max":446,"o":"m 151 953 l 446 953 l 436 885 l 326 885 l 211 68 l 321 68 l 311 0 l 17 0 l 26 68 l 136 68 l 251 885 l 142 885 l 151 953 m 286 1182 l 376 1182 l 364 1086 l 274 1086 l 286 1182 z "},"Ì":{"ha":507,"x_min":17,"x_max":446,"o":"m 276 1042 l 150 1239 l 151 1243 l 242 1243 l 346 1042 l 276 1042 m 151 953 l 446 953 l 436 885 l 326 885 l 211 68 l 321 68 l 311 0 l 17 0 l 26 68 l 136 68 l 251 885 l 142 885 l 151 953 z "},"Ī":{"ha":507,"x_min":17,"x_max":564,"o":"m 151 953 l 446 953 l 436 885 l 326 885 l 211 68 l 321 68 l 311 0 l 17 0 l 26 68 l 136 68 l 251 885 l 142 885 l 151 953 m 111 1203 l 122 1265 l 564 1265 l 553 1203 l 111 1203 z "},"Į":{"ha":507,"x_min":17,"x_max":446,"o":"m 151 953 l 446 953 l 436 885 l 326 885 l 211 68 l 321 68 l 311 0 l 17 0 l 26 68 l 136 68 l 251 885 l 142 885 l 151 953 m 388 -165 q 265 -199 329 -199 q 179 -179 214 -199 q 144 -115 144 -160 q 169 -52 144 -79 q 235 0 193 -25 l 304 0 l 299 -3 q 244 -44 264 -24 q 225 -93 225 -64 q 240 -128 225 -118 q 279 -139 256 -139 q 375 -119 314 -139 l 388 -165 z "},"J":{"ha":729,"x_min":14,"x_max":649,"o":"m 90 257 q 85 203 85 226 q 131 90 85 126 q 254 53 176 53 q 401 99 340 53 q 474 239 461 146 l 574 953 l 649 953 l 547 231 q 450 49 531 113 q 246 -14 369 -14 q 78 38 142 -14 q 14 188 14 90 q 21 257 14 215 l 90 257 z "},"K":{"ha":863,"x_min":71,"x_max":874,"o":"m 206 953 l 281 953 l 201 388 l 785 953 l 874 953 l 444 538 l 750 0 l 656 0 l 385 481 l 188 289 l 146 0 l 71 0 l 206 953 z "},"Ķ":{"ha":863,"x_min":71,"x_max":874,"o":"m 206 953 l 281 953 l 201 388 l 785 953 l 874 953 l 444 538 l 750 0 l 656 0 l 385 481 l 188 289 l 146 0 l 71 0 l 206 953 m 286 -347 q 313 -277 296 -325 q 339 -207 331 -229 l 306 -207 l 318 -111 l 408 -111 l 397 -192 l 333 -347 l 286 -347 z "},"L":{"ha":739,"x_min":71,"x_max":631,"o":"m 71 0 l 206 953 l 281 953 l 156 67 l 631 67 l 631 0 l 71 0 z "},"Ĺ":{"ha":739,"x_min":71,"x_max":631,"o":"m 71 0 l 206 953 l 281 953 l 156 67 l 631 67 l 631 0 l 71 0 m 199 1042 l 361 1243 l 451 1243 l 450 1239 l 268 1042 l 199 1042 z "},"Ľ":{"ha":739,"x_min":71,"x_max":839,"o":"m 71 0 l 206 953 l 281 953 l 156 67 l 631 67 l 631 0 l 71 0 m 718 717 q 744 787 726 739 q 769 857 761 835 l 736 857 l 749 953 l 839 953 l 828 872 l 765 717 l 718 717 z "},"Ļ":{"ha":739,"x_min":71,"x_max":631,"o":"m 71 0 l 206 953 l 281 953 l 156 67 l 631 67 l 631 0 l 71 0 m 224 -347 q 251 -277 233 -325 q 276 -207 268 -229 l 243 -207 l 256 -111 l 346 -111 l 335 -192 l 271 -347 l 224 -347 z "},"Ł":{"ha":742,"x_min":46,"x_max":654,"o":"m 461 604 l 236 497 l 175 67 l 647 67 l 654 0 l 90 0 l 156 460 l 46 408 l 54 469 l 164 521 l 225 953 l 300 953 l 244 558 l 471 665 l 461 604 z "},"M":{"ha":1303,"x_min":71,"x_max":1193,"o":"m 983 0 l 1106 868 l 1099 868 l 594 0 l 524 0 l 267 868 l 260 868 l 138 0 l 71 0 l 206 953 l 325 953 l 575 97 l 581 97 l 1075 953 l 1193 953 l 1058 0 l 983 0 z "},"N":{"ha":964,"x_min":71,"x_max":871,"o":"m 669 0 l 257 810 l 251 810 l 138 0 l 71 0 l 206 953 l 269 953 l 685 143 l 690 143 l 804 953 l 871 953 l 736 0 l 669 0 z "},"Ń":{"ha":964,"x_min":71,"x_max":871,"o":"m 669 0 l 257 810 l 251 810 l 138 0 l 71 0 l 206 953 l 269 953 l 685 143 l 690 143 l 804 953 l 871 953 l 736 0 l 669 0 m 481 1042 l 643 1243 l 733 1243 l 732 1239 l 550 1042 l 481 1042 z "},"Ň":{"ha":964,"x_min":71,"x_max":871,"o":"m 669 0 l 257 810 l 251 810 l 138 0 l 71 0 l 206 953 l 269 953 l 685 143 l 690 143 l 804 953 l 871 953 l 736 0 l 669 0 m 325 1243 l 408 1243 l 532 1108 l 694 1243 l 778 1243 l 563 1042 l 482 1042 l 325 1243 z "},"Ņ":{"ha":964,"x_min":71,"x_max":871,"o":"m 669 0 l 257 810 l 251 810 l 138 0 l 71 0 l 206 953 l 269 953 l 685 143 l 690 143 l 804 953 l 871 953 l 736 0 l 669 0 m 336 -347 q 363 -277 346 -325 q 389 -207 381 -229 l 356 -207 l 368 -111 l 458 -111 l 447 -192 l 383 -347 l 336 -347 z "},"Ñ":{"ha":964,"x_min":71,"x_max":871,"o":"m 822 1156 q 778 1078 817 1114 q 667 1042 740 1042 q 610 1047 636 1042 q 543 1065 583 1053 q 440 1086 481 1086 q 385 1076 406 1086 q 356 1042 365 1065 l 304 1042 q 348 1119 310 1083 q 460 1156 386 1156 q 517 1150 490 1156 q 583 1132 543 1144 q 686 1111 646 1111 q 741 1122 721 1111 q 771 1156 761 1132 l 822 1156 m 669 0 l 257 810 l 251 810 l 138 0 l 71 0 l 206 953 l 269 953 l 685 143 l 690 143 l 804 953 l 871 953 l 736 0 l 669 0 z "},"O":{"ha":958,"x_min":79,"x_max":844,"o":"m 393 -14 q 163 59 246 -14 q 79 317 79 132 q 94 494 79 385 q 243 863 129 760 q 531 967 357 967 q 761 894 678 967 q 844 636 844 821 q 829 458 844 581 q 682 90 796 193 q 393 -14 568 -14 m 403 53 q 632 138 542 53 q 753 442 722 222 q 771 631 771 576 q 704 840 771 781 q 521 900 638 900 q 293 815 383 900 q 171 511 203 731 q 153 322 153 388 q 219 113 153 172 q 403 53 285 53 z "},"Ó":{"ha":958,"x_min":79,"x_max":844,"o":"m 511 1042 l 674 1243 l 764 1243 l 763 1239 l 581 1042 l 511 1042 m 393 -14 q 163 59 246 -14 q 79 317 79 132 q 94 494 79 385 q 243 863 129 760 q 531 967 357 967 q 761 894 678 967 q 844 636 844 821 q 829 458 844 581 q 682 90 796 193 q 393 -14 568 -14 m 403 53 q 632 138 542 53 q 753 442 722 222 q 771 631 771 576 q 704 840 771 781 q 521 900 638 900 q 293 815 383 900 q 171 511 203 731 q 153 322 153 388 q 219 113 153 172 q 403 53 285 53 z "},"Ô":{"ha":958,"x_min":79,"x_max":844,"o":"m 549 1243 l 629 1243 l 786 1042 l 703 1042 l 579 1176 l 417 1042 l 333 1042 l 549 1243 m 393 -14 q 163 59 246 -14 q 79 317 79 132 q 94 494 79 385 q 243 863 129 760 q 531 967 357 967 q 761 894 678 967 q 844 636 844 821 q 829 458 844 581 q 682 90 796 193 q 393 -14 568 -14 m 403 53 q 632 138 542 53 q 753 442 722 222 q 771 631 771 576 q 704 840 771 781 q 521 900 638 900 q 293 815 383 900 q 171 511 203 731 q 153 322 153 388 q 219 113 153 172 q 403 53 285 53 z "},"Ö":{"ha":958,"x_min":79,"x_max":844,"o":"m 410 1139 l 500 1139 l 488 1043 l 397 1043 l 410 1139 m 654 1139 l 744 1139 l 732 1043 l 642 1043 l 654 1139 m 393 -14 q 163 59 246 -14 q 79 317 79 132 q 94 494 79 385 q 243 863 129 760 q 531 967 357 967 q 761 894 678 967 q 844 636 844 821 q 829 458 844 581 q 682 90 796 193 q 393 -14 568 -14 m 403 53 q 632 138 542 53 q 753 442 722 222 q 771 631 771 576 q 704 840 771 781 q 521 900 638 900 q 293 815 383 900 q 171 511 203 731 q 153 322 153 388 q 219 113 153 172 q 403 53 285 53 z "},"Ò":{"ha":958,"x_min":79,"x_max":844,"o":"m 525 1042 l 399 1239 l 400 1243 l 490 1243 l 594 1042 l 525 1042 m 393 -14 q 163 59 246 -14 q 79 317 79 132 q 94 494 79 385 q 243 863 129 760 q 531 967 357 967 q 761 894 678 967 q 844 636 844 821 q 829 458 844 581 q 682 90 796 193 q 393 -14 568 -14 m 403 53 q 632 138 542 53 q 753 442 722 222 q 771 631 771 576 q 704 840 771 781 q 521 900 638 900 q 293 815 383 900 q 171 511 203 731 q 153 322 153 388 q 219 113 153 172 q 403 53 285 53 z "},"Ő":{"ha":958,"x_min":79,"x_max":844,"o":"m 393 -14 q 163 59 246 -14 q 79 317 79 132 q 94 494 79 385 q 243 863 129 760 q 531 967 357 967 q 761 894 678 967 q 844 636 844 821 q 829 458 844 581 q 682 90 796 193 q 393 -14 568 -14 m 403 53 q 632 138 542 53 q 753 442 722 222 q 771 631 771 576 q 704 840 771 781 q 521 900 638 900 q 293 815 383 900 q 171 511 203 731 q 153 322 153 388 q 219 113 153 172 q 403 53 285 53 m 401 1042 l 564 1243 l 653 1243 l 653 1238 l 471 1042 l 401 1042 m 575 1042 l 738 1243 l 826 1243 l 826 1238 l 644 1042 l 575 1042 z "},"Ō":{"ha":958,"x_min":79,"x_max":844,"o":"m 393 -14 q 163 59 246 -14 q 79 317 79 132 q 94 494 79 385 q 243 863 129 760 q 531 967 357 967 q 761 894 678 967 q 844 636 844 821 q 829 458 844 581 q 682 90 796 193 q 393 -14 568 -14 m 403 53 q 632 138 542 53 q 753 442 722 222 q 771 631 771 576 q 704 840 771 781 q 521 900 638 900 q 293 815 383 900 q 171 511 203 731 q 153 322 153 388 q 219 113 153 172 q 403 53 285 53 m 335 1203 l 346 1265 l 788 1265 l 776 1203 l 335 1203 z "},"Ø":{"ha":958,"x_min":28,"x_max":928,"o":"m 408 -14 q 192 47 265 -14 l 90 -90 l 28 -90 l 156 83 q 94 317 94 163 q 110 494 94 385 q 258 863 144 760 q 546 967 372 967 q 763 906 689 967 l 867 1047 l 928 1047 l 797 869 q 860 636 860 789 q 844 458 860 581 q 697 90 811 193 q 408 -14 583 -14 m 168 322 q 206 150 168 214 l 715 843 q 536 900 654 900 q 308 815 399 900 q 186 511 218 731 q 168 322 168 388 m 418 53 q 647 138 557 53 q 768 442 738 222 q 786 631 786 576 q 747 803 786 736 l 238 110 q 418 53 296 53 z "},"Õ":{"ha":958,"x_min":79,"x_max":844,"o":"m 826 1157 q 783 1079 821 1115 q 671 1043 744 1043 q 614 1049 640 1043 q 547 1067 588 1054 q 444 1088 485 1088 q 390 1077 410 1088 q 360 1043 369 1067 l 308 1043 q 352 1121 314 1085 q 464 1157 390 1157 q 521 1151 494 1157 q 588 1133 547 1146 q 690 1113 650 1113 q 745 1123 725 1113 q 775 1157 765 1133 l 826 1157 m 393 -14 q 163 59 246 -14 q 79 317 79 132 q 94 494 79 385 q 243 863 129 760 q 531 967 357 967 q 761 894 678 967 q 844 636 844 821 q 829 458 844 581 q 682 90 796 193 q 393 -14 568 -14 m 403 53 q 632 138 542 53 q 753 442 722 222 q 771 631 771 576 q 704 840 771 781 q 521 900 638 900 q 293 815 383 900 q 171 511 203 731 q 153 322 153 388 q 219 113 153 172 q 403 53 285 53 z "},"Œ":{"ha":1432,"x_min":122,"x_max":1456,"o":"m 753 122 q 615 17 694 47 q 436 -14 536 -14 q 206 59 289 -14 q 122 317 122 132 q 138 494 122 385 q 286 863 172 760 q 574 967 400 967 q 741 936 671 967 q 849 833 811 906 l 867 953 l 1456 953 l 1432 886 l 932 886 l 881 519 l 1324 519 l 1314 453 l 871 453 l 817 67 l 1329 67 l 1329 0 l 732 0 l 753 122 m 446 53 q 675 138 585 53 q 796 442 765 222 q 814 631 814 576 q 747 840 814 781 q 564 900 681 900 q 336 815 426 900 q 214 511 246 731 q 196 322 196 388 q 262 113 196 172 q 446 53 328 53 z "},"P":{"ha":869,"x_min":71,"x_max":821,"o":"m 206 953 l 596 953 q 711 924 660 953 q 792 844 763 894 q 821 731 821 793 q 782 583 821 651 q 674 474 743 514 q 522 433 606 433 l 207 433 l 146 0 l 71 0 l 206 953 m 522 499 q 638 528 586 499 q 718 610 689 558 q 747 721 747 661 q 699 839 747 792 q 576 886 650 886 l 271 886 l 217 499 l 522 499 z "},"Þ":{"ha":879,"x_min":71,"x_max":794,"o":"m 206 953 l 281 953 l 254 765 l 569 765 q 685 736 633 765 q 765 656 736 707 q 794 543 794 606 q 753 397 794 465 q 642 287 711 328 q 496 246 572 246 l 181 246 l 146 0 l 71 0 l 206 953 m 496 311 q 605 342 553 311 q 689 424 657 372 q 721 533 721 475 q 672 651 721 604 q 550 699 624 699 l 244 699 l 190 311 l 496 311 z "},"Q":{"ha":958,"x_min":79,"x_max":844,"o":"m 558 -190 q 405 -139 447 -190 q 363 -12 363 -87 q 153 67 228 -7 q 79 317 79 142 q 94 494 79 385 q 243 863 129 760 q 531 967 357 967 q 761 894 678 967 q 844 636 844 821 q 829 458 844 581 q 694 103 797 208 q 432 -12 590 -3 q 465 -92 435 -60 q 567 -125 496 -125 q 633 -116 596 -125 q 697 -98 669 -107 q 731 -85 724 -89 l 721 -153 q 692 -165 715 -156 q 633 -182 669 -174 q 558 -190 597 -190 m 403 53 q 632 138 542 53 q 753 442 722 222 q 771 631 771 576 q 704 840 771 781 q 521 900 638 900 q 293 815 383 900 q 171 511 203 731 q 153 322 153 388 q 219 113 153 172 q 403 53 285 53 z "},"R":{"ha":931,"x_min":71,"x_max":825,"o":"m 775 1 q 762 -2 772 0 q 739 -4 751 -4 q 651 118 651 -4 q 657 190 651 140 q 660 222 658 204 q 661 258 661 239 q 614 414 661 375 q 515 453 567 453 l 208 453 l 146 0 l 71 0 l 204 953 l 592 953 q 761 894 697 953 q 825 738 825 836 q 797 628 825 682 q 722 538 769 575 q 619 492 675 501 l 619 485 q 653 472 619 490 q 713 409 686 454 q 739 283 739 364 q 731 189 739 253 q 725 121 725 133 q 736 58 725 75 q 760 36 747 42 q 778 28 774 31 l 775 1 m 524 519 q 633 547 581 519 q 717 622 685 575 q 749 724 749 669 q 705 843 749 800 q 586 886 661 886 l 269 886 l 218 519 l 524 519 z "},"Ŕ":{"ha":931,"x_min":71,"x_max":825,"o":"m 775 1 q 762 -2 772 0 q 739 -4 751 -4 q 651 118 651 -4 q 657 190 651 140 q 660 222 658 204 q 661 258 661 239 q 614 414 661 375 q 515 453 567 453 l 208 453 l 146 0 l 71 0 l 204 953 l 592 953 q 761 894 697 953 q 825 738 825 836 q 797 628 825 682 q 722 538 769 575 q 619 492 675 501 l 619 485 q 653 472 619 490 q 713 409 686 454 q 739 283 739 364 q 731 189 739 253 q 725 121 725 133 q 736 58 725 75 q 760 36 747 42 q 778 28 774 31 l 775 1 m 524 519 q 633 547 581 519 q 717 622 685 575 q 749 724 749 669 q 705 843 749 800 q 586 886 661 886 l 269 886 l 218 519 l 524 519 m 422 1042 l 585 1243 l 675 1243 l 674 1239 l 492 1042 l 422 1042 z "},"Ř":{"ha":931,"x_min":71,"x_max":825,"o":"m 775 1 q 762 -2 772 0 q 739 -4 751 -4 q 651 118 651 -4 q 657 190 651 140 q 660 222 658 204 q 661 258 661 239 q 614 414 661 375 q 515 453 567 453 l 208 453 l 146 0 l 71 0 l 204 953 l 592 953 q 761 894 697 953 q 825 738 825 836 q 797 628 825 682 q 722 538 769 575 q 619 492 675 501 l 619 485 q 653 472 619 490 q 713 409 686 454 q 739 283 739 364 q 731 189 739 253 q 725 121 725 133 q 736 58 725 75 q 760 36 747 42 q 778 28 774 31 l 775 1 m 524 519 q 633 547 581 519 q 717 622 685 575 q 749 724 749 669 q 705 843 749 800 q 586 886 661 886 l 269 886 l 218 519 l 524 519 m 267 1243 l 350 1243 l 474 1108 l 636 1243 l 719 1243 l 504 1042 l 424 1042 l 267 1243 z "},"Ŗ":{"ha":931,"x_min":71,"x_max":825,"o":"m 775 1 q 762 -2 772 0 q 739 -4 751 -4 q 651 118 651 -4 q 657 190 651 140 q 660 222 658 204 q 661 258 661 239 q 614 414 661 375 q 515 453 567 453 l 208 453 l 146 0 l 71 0 l 204 953 l 592 953 q 761 894 697 953 q 825 738 825 836 q 797 628 825 682 q 722 538 769 575 q 619 492 675 501 l 619 485 q 653 472 619 490 q 713 409 686 454 q 739 283 739 364 q 731 189 739 253 q 725 121 725 133 q 736 58 725 75 q 760 36 747 42 q 778 28 774 31 l 775 1 m 524 519 q 633 547 581 519 q 717 622 685 575 q 749 724 749 669 q 705 843 749 800 q 586 886 661 886 l 269 886 l 218 519 l 524 519 m 319 -347 q 347 -277 329 -325 q 372 -207 364 -229 l 339 -207 l 351 -111 l 442 -111 l 431 -192 l 367 -347 l 319 -347 z "},"S":{"ha":874,"x_min":50,"x_max":775,"o":"m 700 699 q 706 753 706 738 q 644 862 706 824 q 483 900 582 900 q 292 853 368 900 q 215 706 215 806 q 247 624 215 656 q 324 576 278 593 q 450 538 371 558 q 601 489 544 513 q 699 420 658 465 q 739 301 739 375 q 685 120 739 190 q 546 18 632 50 q 360 -14 460 -14 q 135 39 219 -14 q 50 210 50 92 q 53 252 50 229 q 58 285 56 275 l 129 285 q 123 253 126 276 q 119 215 119 229 q 186 92 119 131 q 364 53 253 53 q 577 107 492 53 q 663 285 663 161 q 630 374 663 339 q 549 427 597 408 q 418 469 500 446 q 273 516 328 493 q 180 582 218 539 q 142 694 142 625 q 190 847 142 786 q 317 938 238 908 q 492 967 397 967 q 697 916 619 967 q 775 758 775 865 q 769 699 775 732 l 700 699 z "},"Ś":{"ha":874,"x_min":50,"x_max":775,"o":"m 700 699 q 706 753 706 738 q 644 862 706 824 q 483 900 582 900 q 292 853 368 900 q 215 706 215 806 q 247 624 215 656 q 324 576 278 593 q 450 538 371 558 q 601 489 544 513 q 699 420 658 465 q 739 301 739 375 q 685 120 739 190 q 546 18 632 50 q 360 -14 460 -14 q 135 39 219 -14 q 50 210 50 92 q 53 252 50 229 q 58 285 56 275 l 129 285 q 123 253 126 276 q 119 215 119 229 q 186 92 119 131 q 364 53 253 53 q 577 107 492 53 q 663 285 663 161 q 630 374 663 339 q 549 427 597 408 q 418 469 500 446 q 273 516 328 493 q 180 582 218 539 q 142 694 142 625 q 190 847 142 786 q 317 938 238 908 q 492 967 397 967 q 697 916 619 967 q 775 758 775 865 q 769 699 775 732 l 700 699 m 436 1042 l 599 1243 l 689 1243 l 688 1239 l 506 1042 l 436 1042 z "},"Š":{"ha":874,"x_min":50,"x_max":775,"o":"m 299 1243 l 382 1243 l 506 1108 l 668 1243 l 751 1243 l 536 1042 l 456 1042 l 299 1243 m 700 699 q 706 753 706 738 q 644 862 706 824 q 483 900 582 900 q 292 853 368 900 q 215 706 215 806 q 247 624 215 656 q 324 576 278 593 q 450 538 371 558 q 601 489 544 513 q 699 420 658 465 q 739 301 739 375 q 685 120 739 190 q 546 18 632 50 q 360 -14 460 -14 q 135 39 219 -14 q 50 210 50 92 q 53 252 50 229 q 58 285 56 275 l 129 285 q 123 253 126 276 q 119 215 119 229 q 186 92 119 131 q 364 53 253 53 q 577 107 492 53 q 663 285 663 161 q 630 374 663 339 q 549 427 597 408 q 418 469 500 446 q 273 516 328 493 q 180 582 218 539 q 142 694 142 625 q 190 847 142 786 q 317 938 238 908 q 492 967 397 967 q 697 916 619 967 q 775 758 775 865 q 769 699 775 732 l 700 699 z "},"Ş":{"ha":874,"x_min":50,"x_max":775,"o":"m 700 699 q 706 753 706 738 q 644 862 706 824 q 483 900 582 900 q 292 853 368 900 q 215 706 215 806 q 247 624 215 656 q 324 576 278 593 q 450 538 371 558 q 601 489 544 513 q 699 420 658 465 q 739 301 739 375 q 685 120 739 190 q 546 18 632 50 q 360 -14 460 -14 q 135 39 219 -14 q 50 210 50 92 q 53 252 50 229 q 58 285 56 275 l 129 285 q 123 253 126 276 q 119 215 119 229 q 186 92 119 131 q 364 53 253 53 q 577 107 492 53 q 663 285 663 161 q 630 374 663 339 q 549 427 597 408 q 418 469 500 446 q 273 516 328 493 q 180 582 218 539 q 142 694 142 625 q 190 847 142 786 q 317 938 238 908 q 492 967 397 967 q 697 916 619 967 q 775 758 775 865 q 769 699 775 732 l 700 699 m 244 -192 q 338 -210 275 -210 q 419 -190 383 -210 q 454 -126 454 -171 q 433 -85 454 -100 q 382 -71 411 -71 l 351 -71 l 358 -24 q 481 -42 438 -24 q 525 -125 525 -61 q 467 -240 525 -206 q 342 -274 408 -274 q 236 -256 281 -274 l 244 -192 z "},"Ș":{"ha":874,"x_min":50,"x_max":775,"o":"m 700 699 q 706 753 706 738 q 644 862 706 824 q 483 900 582 900 q 292 853 368 900 q 215 706 215 806 q 247 624 215 656 q 324 576 278 593 q 450 538 371 558 q 601 489 544 513 q 699 420 658 465 q 739 301 739 375 q 685 120 739 190 q 546 18 632 50 q 360 -14 460 -14 q 135 39 219 -14 q 50 210 50 92 q 53 252 50 229 q 58 285 56 275 l 129 285 q 123 253 126 276 q 119 215 119 229 q 186 92 119 131 q 364 53 253 53 q 577 107 492 53 q 663 285 663 161 q 630 374 663 339 q 549 427 597 408 q 418 469 500 446 q 273 516 328 493 q 180 582 218 539 q 142 694 142 625 q 190 847 142 786 q 317 938 238 908 q 492 967 397 967 q 697 916 619 967 q 775 758 775 865 q 769 699 775 732 l 700 699 m 292 -347 q 319 -277 301 -325 q 344 -207 336 -229 l 311 -207 l 324 -111 l 414 -111 l 403 -192 l 339 -347 l 292 -347 z "},"T":{"ha":799,"x_min":93,"x_max":819,"o":"m 488 886 l 363 0 l 290 0 l 415 886 l 93 886 l 103 953 l 819 953 l 810 886 l 488 886 z "},"Ť":{"ha":799,"x_min":93,"x_max":819,"o":"m 488 886 l 363 0 l 290 0 l 415 886 l 93 886 l 103 953 l 819 953 l 810 886 l 488 886 m 261 1243 l 344 1243 l 468 1108 l 631 1243 l 714 1243 l 499 1042 l 418 1042 l 261 1243 z "},"Ţ":{"ha":799,"x_min":93,"x_max":819,"o":"m 488 886 l 363 0 l 290 0 l 415 886 l 93 886 l 103 953 l 819 953 l 810 886 l 488 886 m 192 -192 q 285 -210 222 -210 q 366 -190 331 -210 q 401 -126 401 -171 q 380 -85 401 -100 q 329 -71 358 -71 l 299 -71 l 306 -24 q 428 -42 385 -24 q 472 -125 472 -61 q 414 -240 472 -206 q 289 -274 356 -274 q 183 -256 228 -274 l 192 -192 z "},"Ț":{"ha":799,"x_min":93,"x_max":819,"o":"m 488 886 l 363 0 l 290 0 l 415 886 l 93 886 l 103 953 l 819 953 l 810 886 l 488 886 m 239 -347 q 266 -277 249 -325 q 292 -207 283 -229 l 258 -207 l 271 -111 l 361 -111 l 350 -192 l 286 -347 l 239 -347 z "},"U":{"ha":947,"x_min":103,"x_max":860,"o":"m 769 306 q 704 138 756 210 q 572 26 653 65 q 393 -14 492 -14 q 181 58 258 -14 q 103 250 103 129 q 142 574 103 296 q 197 953 182 853 l 272 953 l 213 528 q 195 410 206 482 q 181 306 185 339 q 178 260 178 272 q 235 108 178 164 q 401 53 293 53 q 600 123 522 53 q 694 308 678 193 l 785 953 l 860 953 l 769 306 z "},"Ú":{"ha":947,"x_min":103,"x_max":860,"o":"m 504 1042 l 667 1243 l 757 1243 l 756 1239 l 574 1042 l 504 1042 m 769 306 q 704 138 756 210 q 572 26 653 65 q 393 -14 492 -14 q 181 58 258 -14 q 103 250 103 129 q 142 574 103 296 q 197 953 182 853 l 272 953 l 213 528 q 195 410 206 482 q 181 306 185 339 q 178 260 178 272 q 235 108 178 164 q 401 53 293 53 q 600 123 522 53 q 694 308 678 193 l 785 953 l 860 953 l 769 306 z "},"Û":{"ha":947,"x_min":103,"x_max":860,"o":"m 522 1243 l 603 1243 l 760 1042 l 676 1042 l 553 1176 l 390 1042 l 307 1042 l 522 1243 m 769 306 q 704 138 756 210 q 572 26 653 65 q 393 -14 492 -14 q 181 58 258 -14 q 103 250 103 129 q 142 574 103 296 q 197 953 182 853 l 272 953 l 213 528 q 195 410 206 482 q 181 306 185 339 q 178 260 178 272 q 235 108 178 164 q 401 53 293 53 q 600 123 522 53 q 694 308 678 193 l 785 953 l 860 953 l 769 306 z "},"Ü":{"ha":947,"x_min":103,"x_max":860,"o":"m 388 1139 l 478 1139 l 465 1043 l 375 1043 l 388 1139 m 632 1139 l 722 1139 l 710 1043 l 619 1043 l 632 1139 m 769 306 q 704 138 756 210 q 572 26 653 65 q 393 -14 492 -14 q 181 58 258 -14 q 103 250 103 129 q 142 574 103 296 q 197 953 182 853 l 272 953 l 213 528 q 195 410 206 482 q 181 306 185 339 q 178 260 178 272 q 235 108 178 164 q 401 53 293 53 q 600 123 522 53 q 694 308 678 193 l 785 953 l 860 953 l 769 306 z "},"Ù":{"ha":947,"x_min":103,"x_max":860,"o":"m 511 1042 l 385 1239 l 386 1243 l 476 1243 l 581 1042 l 511 1042 m 769 306 q 704 138 756 210 q 572 26 653 65 q 393 -14 492 -14 q 181 58 258 -14 q 103 250 103 129 q 142 574 103 296 q 197 953 182 853 l 272 953 l 213 528 q 195 410 206 482 q 181 306 185 339 q 178 260 178 272 q 235 108 178 164 q 401 53 293 53 q 600 123 522 53 q 694 308 678 193 l 785 953 l 860 953 l 769 306 z "},"Ű":{"ha":947,"x_min":103,"x_max":860,"o":"m 769 306 q 704 138 756 210 q 572 26 653 65 q 393 -14 492 -14 q 181 58 258 -14 q 103 250 103 129 q 142 574 103 296 q 197 953 182 853 l 272 953 l 213 528 q 195 410 206 482 q 181 306 185 339 q 178 260 178 272 q 235 108 178 164 q 401 53 293 53 q 600 123 522 53 q 694 308 678 193 l 785 953 l 860 953 l 769 306 m 408 1042 l 571 1243 l 660 1243 l 660 1238 l 478 1042 l 408 1042 m 582 1042 l 744 1243 l 833 1243 l 833 1238 l 651 1042 l 582 1042 z "},"Ū":{"ha":947,"x_min":103,"x_max":860,"o":"m 769 306 q 704 138 756 210 q 572 26 653 65 q 393 -14 492 -14 q 181 58 258 -14 q 103 250 103 129 q 142 574 103 296 q 197 953 182 853 l 272 953 l 213 528 q 195 410 206 482 q 181 306 185 339 q 178 260 178 272 q 235 108 178 164 q 401 53 293 53 q 600 123 522 53 q 694 308 678 193 l 785 953 l 860 953 l 769 306 m 342 1203 l 353 1265 l 794 1265 l 783 1203 l 342 1203 z "},"Ų":{"ha":947,"x_min":103,"x_max":860,"o":"m 860 953 l 769 306 q 676 102 751 185 q 485 -4 600 19 q 433 -46 451 -26 q 414 -93 414 -65 q 429 -128 414 -118 q 468 -139 444 -139 q 564 -119 503 -139 l 576 -165 q 454 -199 518 -199 q 368 -179 403 -199 q 333 -115 333 -160 q 351 -60 333 -83 q 401 -14 369 -36 l 393 -14 q 181 58 258 -14 q 103 250 103 129 q 142 574 103 296 q 197 953 182 853 l 272 953 l 213 528 q 195 410 206 482 q 181 306 185 339 q 178 260 178 272 q 235 108 178 164 q 401 53 293 53 q 600 123 522 53 q 694 308 678 193 l 785 953 l 860 953 z "},"Ů":{"ha":947,"x_min":103,"x_max":860,"o":"m 769 306 q 704 138 756 210 q 572 26 653 65 q 393 -14 492 -14 q 181 58 258 -14 q 103 250 103 129 q 142 574 103 296 q 197 953 182 853 l 272 953 l 213 528 q 195 410 206 482 q 181 306 185 339 q 178 260 178 272 q 235 108 178 164 q 401 53 293 53 q 600 123 522 53 q 694 308 678 193 l 785 953 l 860 953 l 769 306 m 697 1160 q 650 1047 697 1094 q 536 1000 603 1000 q 449 1034 483 1000 q 414 1121 414 1068 q 437 1201 414 1165 q 497 1258 460 1238 q 576 1279 535 1279 q 663 1245 628 1279 q 697 1160 697 1211 m 543 1050 q 616 1081 585 1050 q 647 1153 647 1111 q 625 1208 647 1186 q 569 1229 603 1229 q 496 1199 528 1229 q 464 1126 464 1168 q 487 1072 464 1093 q 543 1050 510 1050 z "},"V":{"ha":836,"x_min":82,"x_max":869,"o":"m 796 953 l 869 953 l 375 0 l 308 0 l 82 953 l 164 953 l 358 119 l 365 119 l 796 953 z "},"W":{"ha":1269,"x_min":93,"x_max":1251,"o":"m 1182 953 l 1251 953 l 839 0 l 775 0 l 654 807 l 649 807 l 300 0 l 236 0 l 93 953 l 174 953 l 292 149 l 297 149 l 643 953 l 713 953 l 831 149 l 836 149 l 1182 953 z "},"X":{"ha":872,"x_min":-44,"x_max":853,"o":"m 465 499 l 749 0 l 658 0 l 414 438 l 408 438 l 36 0 l -44 0 l 379 499 l 121 953 l 211 953 l 431 558 l 436 558 l 771 953 l 853 953 l 465 499 z "},"Y":{"ha":792,"x_min":68,"x_max":826,"o":"m 403 369 l 350 0 l 275 0 l 328 369 l 68 953 l 156 953 l 375 446 l 382 446 l 750 953 l 826 953 l 403 369 z "},"Ý":{"ha":792,"x_min":68,"x_max":826,"o":"m 432 1042 l 594 1243 l 685 1243 l 683 1239 l 501 1042 l 432 1042 m 403 369 l 350 0 l 275 0 l 328 369 l 68 953 l 156 953 l 375 446 l 382 446 l 750 953 l 826 953 l 403 369 z "},"Ÿ":{"ha":792,"x_min":68,"x_max":826,"o":"m 304 1138 l 394 1138 l 382 1042 l 292 1042 l 304 1138 m 549 1138 l 639 1138 l 626 1042 l 536 1042 l 549 1138 m 403 369 l 350 0 l 275 0 l 328 369 l 68 953 l 156 953 l 375 446 l 382 446 l 750 953 l 826 953 l 403 369 z "},"Z":{"ha":826,"x_min":-12,"x_max":810,"o":"m -12 0 l -7 35 l 686 886 l 146 886 l 156 953 l 810 953 l 804 919 l 110 67 l 696 67 l 686 0 l -12 0 z "},"Ź":{"ha":826,"x_min":-12,"x_max":810,"o":"m -12 0 l -7 35 l 686 886 l 146 886 l 156 953 l 810 953 l 804 919 l 110 67 l 696 67 l 686 0 l -12 0 m 454 1042 l 617 1243 l 707 1243 l 706 1239 l 524 1042 l 454 1042 z "},"Ž":{"ha":826,"x_min":-12,"x_max":810,"o":"m 282 1243 l 365 1243 l 489 1108 l 651 1243 l 735 1243 l 519 1042 l 439 1042 l 282 1243 m -12 0 l -7 35 l 686 886 l 146 886 l 156 953 l 810 953 l 804 919 l 110 67 l 696 67 l 686 0 l -12 0 z "},"Ż":{"ha":826,"x_min":-12,"x_max":810,"o":"m -12 0 l -7 35 l 686 886 l 146 886 l 156 953 l 810 953 l 804 919 l 110 67 l 696 67 l 686 0 l -12 0 m 486 1182 l 576 1182 l 564 1086 l 474 1086 l 486 1182 z "},"a":{"ha":843,"x_min":58,"x_max":713,"o":"m 536 76 q 538 96 536 89 q 294 -14 446 -14 q 123 56 188 -14 q 58 264 58 125 q 94 484 58 379 q 207 656 131 589 q 399 724 283 724 q 526 694 472 724 q 608 611 581 664 l 614 611 l 647 710 l 693 710 q 643 355 679 614 q 607 85 607 96 q 639 50 607 50 q 713 72 671 50 l 704 13 q 617 -14 663 -14 q 555 11 574 -14 q 536 76 536 36 m 311 50 q 466 108 406 50 q 553 255 526 165 q 581 446 581 344 q 530 606 581 553 q 396 660 479 660 q 243 601 303 660 q 156 452 183 542 q 129 268 129 363 q 178 102 129 154 q 311 50 226 50 z "},"á":{"ha":843,"x_min":58,"x_max":713,"o":"m 396 799 l 558 1000 l 649 1000 l 647 996 l 465 799 l 396 799 m 536 76 q 538 96 536 89 q 294 -14 446 -14 q 123 56 188 -14 q 58 264 58 125 q 94 484 58 379 q 207 656 131 589 q 399 724 283 724 q 526 694 472 724 q 608 611 581 664 l 614 611 l 647 710 l 693 710 q 643 355 679 614 q 607 85 607 96 q 639 50 607 50 q 713 72 671 50 l 704 13 q 617 -14 663 -14 q 555 11 574 -14 q 536 76 536 36 m 311 50 q 466 108 406 50 q 553 255 526 165 q 581 446 581 344 q 530 606 581 553 q 396 660 479 660 q 243 601 303 660 q 156 452 183 542 q 129 268 129 363 q 178 102 129 154 q 311 50 226 50 z "},"ă":{"ha":843,"x_min":58,"x_max":713,"o":"m 536 76 q 538 96 536 89 q 294 -14 446 -14 q 123 56 188 -14 q 58 264 58 125 q 94 484 58 379 q 207 656 131 589 q 399 724 283 724 q 526 694 472 724 q 608 611 581 664 l 614 611 l 647 710 l 693 710 q 643 355 679 614 q 607 85 607 96 q 639 50 607 50 q 713 72 671 50 l 704 13 q 617 -14 663 -14 q 555 11 574 -14 q 536 76 536 36 m 311 50 q 466 108 406 50 q 553 255 526 165 q 581 446 581 344 q 530 606 581 553 q 396 660 479 660 q 243 601 303 660 q 156 452 183 542 q 129 268 129 363 q 178 102 129 154 q 311 50 226 50 m 397 851 q 274 875 331 851 q 185 936 218 899 q 153 1013 153 974 q 154 1024 153 1019 l 232 1024 q 289 947 242 974 q 407 919 336 919 q 532 947 476 919 q 611 1024 588 974 l 689 1024 q 641 943 683 983 q 533 877 599 903 q 397 851 468 851 z "},"â":{"ha":843,"x_min":58,"x_max":713,"o":"m 429 1000 l 510 1000 l 667 799 l 583 799 l 460 933 l 297 799 l 214 799 l 429 1000 m 536 76 q 538 96 536 89 q 294 -14 446 -14 q 123 56 188 -14 q 58 264 58 125 q 94 484 58 379 q 207 656 131 589 q 399 724 283 724 q 526 694 472 724 q 608 611 581 664 l 614 611 l 647 710 l 693 710 q 643 355 679 614 q 607 85 607 96 q 639 50 607 50 q 713 72 671 50 l 704 13 q 617 -14 663 -14 q 555 11 574 -14 q 536 76 536 36 m 311 50 q 466 108 406 50 q 553 255 526 165 q 581 446 581 344 q 530 606 581 553 q 396 660 479 660 q 243 601 303 660 q 156 452 183 542 q 129 268 129 363 q 178 102 129 154 q 311 50 226 50 z "},"ä":{"ha":843,"x_min":58,"x_max":713,"o":"m 301 1000 l 392 1000 l 379 904 l 289 904 l 301 1000 m 546 1000 l 636 1000 l 624 904 l 533 904 l 546 1000 m 536 76 q 538 96 536 89 q 294 -14 446 -14 q 123 56 188 -14 q 58 264 58 125 q 94 484 58 379 q 207 656 131 589 q 399 724 283 724 q 526 694 472 724 q 608 611 581 664 l 614 611 l 647 710 l 693 710 q 643 355 679 614 q 607 85 607 96 q 639 50 607 50 q 713 72 671 50 l 704 13 q 617 -14 663 -14 q 555 11 574 -14 q 536 76 536 36 m 311 50 q 466 108 406 50 q 553 255 526 165 q 581 446 581 344 q 530 606 581 553 q 396 660 479 660 q 243 601 303 660 q 156 452 183 542 q 129 268 129 363 q 178 102 129 154 q 311 50 226 50 z "},"à":{"ha":843,"x_min":58,"x_max":713,"o":"m 399 799 l 272 996 l 274 1000 l 364 1000 l 468 799 l 399 799 m 536 76 q 538 96 536 89 q 294 -14 446 -14 q 123 56 188 -14 q 58 264 58 125 q 94 484 58 379 q 207 656 131 589 q 399 724 283 724 q 526 694 472 724 q 608 611 581 664 l 614 611 l 647 710 l 693 710 q 643 355 679 614 q 607 85 607 96 q 639 50 607 50 q 713 72 671 50 l 704 13 q 617 -14 663 -14 q 555 11 574 -14 q 536 76 536 36 m 311 50 q 466 108 406 50 q 553 255 526 165 q 581 446 581 344 q 530 606 581 553 q 396 660 479 660 q 243 601 303 660 q 156 452 183 542 q 129 268 129 363 q 178 102 129 154 q 311 50 226 50 z "},"ā":{"ha":843,"x_min":58,"x_max":713,"o":"m 536 76 q 538 96 536 89 q 294 -14 446 -14 q 123 56 188 -14 q 58 264 58 125 q 94 484 58 379 q 207 656 131 589 q 399 724 283 724 q 526 694 472 724 q 608 611 581 664 l 614 611 l 647 710 l 693 710 q 643 355 679 614 q 607 85 607 96 q 639 50 607 50 q 713 72 671 50 l 704 13 q 617 -14 663 -14 q 555 11 574 -14 q 536 76 536 36 m 311 50 q 466 108 406 50 q 553 255 526 165 q 581 446 581 344 q 530 606 581 553 q 396 660 479 660 q 243 601 303 660 q 156 452 183 542 q 129 268 129 363 q 178 102 129 154 q 311 50 226 50 m 201 960 l 213 1022 l 654 1022 l 643 960 l 201 960 z "},"ą":{"ha":843,"x_min":58,"x_max":774,"o":"m 774 -165 q 651 -199 715 -199 q 565 -179 600 -199 q 531 -115 531 -160 q 600 -12 531 -61 q 536 76 536 -3 q 538 96 536 89 q 294 -14 446 -14 q 123 56 188 -14 q 58 264 58 125 q 94 484 58 379 q 207 656 131 589 q 399 724 283 724 q 526 694 472 724 q 608 611 581 664 l 614 611 l 647 710 l 693 710 q 643 355 679 614 q 607 85 607 96 q 639 50 607 50 q 713 72 671 50 l 704 13 l 681 0 l 690 0 l 685 -3 q 631 -44 650 -24 q 611 -93 611 -64 q 626 -128 611 -118 q 665 -139 642 -139 q 761 -119 700 -139 l 774 -165 m 311 50 q 466 108 406 50 q 553 255 526 165 q 581 446 581 344 q 530 606 581 553 q 396 660 479 660 q 243 601 303 660 q 156 452 183 542 q 129 268 129 363 q 178 102 129 154 q 311 50 226 50 z "},"å":{"ha":843,"x_min":58,"x_max":713,"o":"m 597 931 q 550 818 597 865 q 436 771 503 771 q 349 805 383 771 q 314 892 314 839 q 337 972 314 936 q 397 1029 360 1008 q 476 1050 435 1050 q 563 1016 528 1050 q 597 931 597 982 m 443 821 q 516 851 485 821 q 547 924 547 882 q 525 978 547 957 q 469 1000 503 1000 q 396 969 428 1000 q 364 897 364 939 q 387 842 364 864 q 443 821 410 821 m 536 76 q 538 96 536 89 q 294 -14 446 -14 q 123 56 188 -14 q 58 264 58 125 q 94 484 58 379 q 207 656 131 589 q 399 724 283 724 q 526 694 472 724 q 608 611 581 664 l 614 611 l 647 710 l 693 710 q 643 355 679 614 q 607 85 607 96 q 639 50 607 50 q 713 72 671 50 l 704 13 q 617 -14 663 -14 q 555 11 574 -14 q 536 76 536 36 m 311 50 q 466 108 406 50 q 553 255 526 165 q 581 446 581 344 q 530 606 581 553 q 396 660 479 660 q 243 601 303 660 q 156 452 183 542 q 129 268 129 363 q 178 102 129 154 q 311 50 226 50 z "},"ã":{"ha":843,"x_min":58,"x_max":719,"o":"m 719 1000 q 676 922 714 958 q 564 886 638 886 q 507 892 533 886 q 440 910 481 897 q 338 931 378 931 q 283 920 303 931 q 253 886 263 910 l 201 886 q 245 964 207 928 q 357 1000 283 1000 q 414 994 388 1000 q 481 976 440 989 q 583 956 543 956 q 638 966 618 956 q 668 1000 658 976 l 719 1000 m 536 76 q 538 96 536 89 q 294 -14 446 -14 q 123 56 188 -14 q 58 264 58 125 q 94 484 58 379 q 207 656 131 589 q 399 724 283 724 q 526 694 472 724 q 608 611 581 664 l 614 611 l 647 710 l 693 710 q 643 355 679 614 q 607 85 607 96 q 639 50 607 50 q 713 72 671 50 l 704 13 q 617 -14 663 -14 q 555 11 574 -14 q 536 76 536 36 m 311 50 q 466 108 406 50 q 553 255 526 165 q 581 446 581 344 q 530 606 581 553 q 396 660 479 660 q 243 601 303 660 q 156 452 183 542 q 129 268 129 363 q 178 102 129 154 q 311 50 226 50 z "},"æ":{"ha":1243,"x_min":54,"x_max":1153,"o":"m 1125 263 q 1067 114 1113 176 q 955 19 1022 51 q 810 -14 888 -14 q 656 31 718 -14 q 571 160 594 75 q 430 28 517 69 q 253 -14 343 -14 q 107 24 160 -14 q 54 154 54 61 q 119 322 54 267 q 291 394 183 378 q 572 411 399 411 q 588 542 588 526 q 549 633 588 607 q 422 660 511 660 q 270 624 331 660 q 200 515 210 589 l 197 493 l 128 493 l 131 529 q 228 672 143 619 q 432 724 313 724 q 657 597 632 724 q 770 691 704 658 q 913 724 836 724 q 1087 662 1021 724 q 1153 488 1153 600 q 1138 347 1153 454 l 635 347 l 633 336 q 628 267 628 303 q 681 106 628 161 q 819 50 733 50 q 974 104 908 50 q 1056 263 1040 158 l 1125 263 m 903 660 q 740 596 810 660 q 644 411 669 532 l 1076 411 q 1083 481 1083 461 q 1033 614 1083 568 q 903 660 983 660 m 564 347 q 318 337 407 347 q 177 287 229 326 q 125 165 125 247 q 160 77 125 104 q 276 50 194 50 q 400 78 340 50 q 502 162 460 106 q 557 300 544 218 l 564 347 z "},"b":{"ha":808,"x_min":58,"x_max":696,"o":"m 214 611 q 319 694 256 664 q 457 724 383 724 q 630 651 564 724 q 696 450 696 579 q 660 239 696 346 q 548 59 625 132 q 353 -14 471 -14 q 131 118 190 -14 l 88 0 l 58 0 l 199 1000 l 269 1000 l 214 611 m 440 660 q 287 603 347 660 q 199 457 226 546 q 171 267 171 368 q 221 101 171 151 q 356 50 271 50 q 489 95 428 50 q 587 230 550 140 q 624 447 624 319 q 573 606 624 553 q 440 660 522 660 z "},"c":{"ha":758,"x_min":58,"x_max":654,"o":"m 628 274 q 570 119 615 183 q 458 20 525 54 q 311 -14 390 -14 q 126 59 194 -14 q 58 265 58 132 q 97 487 58 382 q 217 658 136 592 q 414 724 297 724 q 588 662 522 724 q 654 488 654 600 q 651 436 654 454 l 582 436 q 585 481 585 467 q 535 614 585 568 q 404 660 485 660 q 248 602 310 660 q 158 455 186 544 q 129 267 129 365 q 182 106 129 161 q 321 50 235 50 q 477 107 411 50 q 558 274 543 164 l 628 274 z "},"ć":{"ha":758,"x_min":58,"x_max":654,"o":"m 628 274 q 570 119 615 183 q 458 20 525 54 q 311 -14 390 -14 q 126 59 194 -14 q 58 265 58 132 q 97 487 58 382 q 217 658 136 592 q 414 724 297 724 q 588 662 522 724 q 654 488 654 600 q 651 436 654 454 l 582 436 q 585 481 585 467 q 535 614 585 568 q 404 660 485 660 q 248 602 310 660 q 158 455 186 544 q 129 267 129 365 q 182 106 129 161 q 321 50 235 50 q 477 107 411 50 q 558 274 543 164 l 628 274 m 357 799 l 519 1000 l 610 1000 l 608 996 l 426 799 l 357 799 z "},"č":{"ha":758,"x_min":58,"x_max":654,"o":"m 628 274 q 570 119 615 183 q 458 20 525 54 q 311 -14 390 -14 q 126 59 194 -14 q 58 265 58 132 q 97 487 58 382 q 217 658 136 592 q 414 724 297 724 q 588 662 522 724 q 654 488 654 600 q 651 436 654 454 l 582 436 q 585 481 585 467 q 535 614 585 568 q 404 660 485 660 q 248 602 310 660 q 158 455 186 544 q 129 267 129 365 q 182 106 129 161 q 321 50 235 50 q 477 107 411 50 q 558 274 543 164 l 628 274 m 201 1000 l 285 1000 l 408 865 l 571 1000 l 654 1000 l 439 799 l 358 799 l 201 1000 z "},"ç":{"ha":758,"x_min":58,"x_max":654,"o":"m 628 274 q 570 119 615 183 q 458 20 525 54 q 311 -14 390 -14 q 126 59 194 -14 q 58 265 58 132 q 97 487 58 382 q 217 658 136 592 q 414 724 297 724 q 588 662 522 724 q 654 488 654 600 q 651 436 654 454 l 582 436 q 585 481 585 467 q 535 614 585 568 q 404 660 485 660 q 248 602 310 660 q 158 455 186 544 q 129 267 129 365 q 182 106 129 161 q 321 50 235 50 q 477 107 411 50 q 558 274 543 164 l 628 274 m 158 -192 q 251 -210 189 -210 q 333 -190 299 -210 q 368 -126 368 -171 q 347 -85 368 -100 q 296 -71 325 -71 l 265 -71 l 272 -24 q 395 -42 351 -24 q 439 -125 439 -61 q 381 -240 439 -206 q 256 -274 322 -274 q 150 -256 194 -274 l 158 -192 z "},"d":{"ha":850,"x_min":58,"x_max":735,"o":"m 536 76 q 538 96 536 89 q 294 -14 446 -14 q 123 56 188 -14 q 58 264 58 125 q 94 484 58 379 q 207 656 131 589 q 399 724 283 724 q 526 694 472 724 q 608 611 581 664 l 664 1000 l 735 1000 q 661 478 715 860 q 607 85 607 96 q 639 50 607 50 q 713 72 671 50 l 704 13 q 617 -14 663 -14 q 555 11 574 -14 q 536 76 536 36 m 311 50 q 466 108 406 50 q 553 255 526 165 q 581 446 581 344 q 530 606 581 553 q 396 660 479 660 q 243 601 303 660 q 156 452 183 542 q 129 268 129 363 q 178 102 129 154 q 311 50 226 50 z "},"ð":{"ha":800,"x_min":82,"x_max":696,"o":"m 314 1006 q 433 918 371 968 l 588 988 l 615 956 l 468 889 q 634 686 572 799 q 696 442 696 574 q 659 228 696 332 q 542 55 622 124 q 338 -14 461 -14 q 151 60 219 -14 q 82 267 82 133 q 119 481 82 376 q 238 655 157 586 q 442 724 319 724 q 543 706 493 724 q 407 861 485 788 l 256 792 l 225 824 l 375 892 q 260 982 344 917 l 314 1006 m 346 50 q 502 108 439 50 q 596 256 565 167 q 626 440 626 346 q 573 603 626 547 q 432 660 519 660 q 270 601 333 660 q 179 455 207 543 q 151 271 151 367 q 205 106 151 163 q 346 50 258 50 z "},"ď":{"ha":850,"x_min":58,"x_max":935,"o":"m 536 76 q 538 96 536 89 q 294 -14 446 -14 q 123 56 188 -14 q 58 264 58 125 q 94 484 58 379 q 207 656 131 589 q 399 724 283 724 q 526 694 472 724 q 608 611 581 664 l 664 1000 l 735 1000 q 661 478 715 860 q 607 85 607 96 q 639 50 607 50 q 713 72 671 50 l 704 13 q 617 -14 663 -14 q 555 11 574 -14 q 536 76 536 36 m 311 50 q 466 108 406 50 q 553 255 526 165 q 581 446 581 344 q 530 606 581 553 q 396 660 479 660 q 243 601 303 660 q 156 452 183 542 q 129 268 129 363 q 178 102 129 154 q 311 50 226 50 m 814 717 q 840 787 822 739 q 865 857 857 835 l 832 857 l 844 953 l 935 953 l 924 872 l 861 717 l 814 717 z "},"đ":{"ha":850,"x_min":58,"x_max":879,"o":"m 715 865 l 667 518 q 607 85 607 94 q 639 50 607 50 q 713 72 671 50 l 704 13 q 617 -14 663 -14 q 555 11 574 -14 q 536 76 536 36 q 538 96 536 89 q 294 -14 446 -14 q 123 56 188 -14 q 58 264 58 125 q 94 484 58 379 q 207 656 131 589 q 399 724 283 724 q 526 694 472 724 q 608 611 581 664 l 644 865 l 340 865 l 349 925 l 653 925 l 664 1000 l 735 1000 l 724 925 l 879 925 l 871 865 l 715 865 m 311 50 q 466 108 406 50 q 553 255 526 165 q 581 446 581 344 q 530 606 581 553 q 396 660 479 660 q 243 601 303 660 q 156 452 183 542 q 129 268 129 363 q 178 102 129 154 q 311 50 226 50 z "},"e":{"ha":772,"x_min":57,"x_max":653,"o":"m 625 263 q 522 59 607 132 q 310 -14 436 -14 q 125 59 193 -14 q 57 265 57 132 q 96 485 57 381 q 215 657 135 590 q 413 724 294 724 q 587 662 521 724 q 653 488 653 600 q 649 419 653 464 q 638 347 644 375 l 135 347 q 128 267 128 303 q 181 106 128 161 q 319 50 233 50 q 476 103 413 50 q 556 263 540 157 l 625 263 m 403 660 q 240 596 310 660 q 144 411 169 532 l 576 411 q 583 481 583 451 q 533 614 583 568 q 403 660 483 660 z "},"é":{"ha":772,"x_min":57,"x_max":653,"o":"m 388 799 l 550 1000 l 640 1000 l 639 996 l 457 799 l 388 799 m 625 263 q 522 59 607 132 q 310 -14 436 -14 q 125 59 193 -14 q 57 265 57 132 q 96 485 57 381 q 215 657 135 590 q 413 724 294 724 q 587 662 521 724 q 653 488 653 600 q 649 419 653 464 q 638 347 644 375 l 135 347 q 128 267 128 303 q 181 106 128 161 q 319 50 233 50 q 476 103 413 50 q 556 263 540 157 l 625 263 m 403 660 q 240 596 310 660 q 144 411 169 532 l 576 411 q 583 481 583 451 q 533 614 583 568 q 403 660 483 660 z "},"ě":{"ha":772,"x_min":57,"x_max":653,"o":"m 625 263 q 522 59 607 132 q 310 -14 436 -14 q 125 59 193 -14 q 57 265 57 132 q 96 485 57 381 q 215 657 135 590 q 413 724 294 724 q 587 662 521 724 q 653 488 653 600 q 649 419 653 464 q 638 347 644 375 l 135 347 q 128 267 128 303 q 181 106 128 161 q 319 50 233 50 q 476 103 413 50 q 556 263 540 157 l 625 263 m 403 660 q 240 596 310 660 q 144 411 169 532 l 576 411 q 583 481 583 451 q 533 614 583 568 q 403 660 483 660 m 194 1000 l 278 1000 l 401 865 l 564 1000 l 647 1000 l 432 799 l 351 799 l 194 1000 z "},"ê":{"ha":772,"x_min":57,"x_max":664,"o":"m 426 1000 l 507 1000 l 664 799 l 581 799 l 457 933 l 294 799 l 211 799 l 426 1000 m 625 263 q 522 59 607 132 q 310 -14 436 -14 q 125 59 193 -14 q 57 265 57 132 q 96 485 57 381 q 215 657 135 590 q 413 724 294 724 q 587 662 521 724 q 653 488 653 600 q 649 419 653 464 q 638 347 644 375 l 135 347 q 128 267 128 303 q 181 106 128 161 q 319 50 233 50 q 476 103 413 50 q 556 263 540 157 l 625 263 m 403 660 q 240 596 310 660 q 144 411 169 532 l 576 411 q 583 481 583 451 q 533 614 583 568 q 403 660 483 660 z "},"ë":{"ha":772,"x_min":57,"x_max":653,"o":"m 293 1000 l 383 1000 l 371 904 l 281 904 l 293 1000 m 538 1000 l 628 1000 l 615 904 l 525 904 l 538 1000 m 625 263 q 522 59 607 132 q 310 -14 436 -14 q 125 59 193 -14 q 57 265 57 132 q 96 485 57 381 q 215 657 135 590 q 413 724 294 724 q 587 662 521 724 q 653 488 653 600 q 649 419 653 464 q 638 347 644 375 l 135 347 q 128 267 128 303 q 181 106 128 161 q 319 50 233 50 q 476 103 413 50 q 556 263 540 157 l 625 263 m 403 660 q 240 596 310 660 q 144 411 169 532 l 576 411 q 583 481 583 451 q 533 614 583 568 q 403 660 483 660 z "},"ė":{"ha":772,"x_min":57,"x_max":653,"o":"m 625 263 q 522 59 607 132 q 310 -14 436 -14 q 125 59 193 -14 q 57 265 57 132 q 96 485 57 381 q 215 657 135 590 q 413 724 294 724 q 587 662 521 724 q 653 488 653 600 q 649 419 653 464 q 638 347 644 375 l 135 347 q 128 267 128 303 q 181 106 128 161 q 319 50 233 50 q 476 103 413 50 q 556 263 540 157 l 625 263 m 403 660 q 240 596 310 660 q 144 411 169 532 l 576 411 q 583 481 583 451 q 533 614 583 568 q 403 660 483 660 m 382 939 l 472 939 l 460 843 l 369 843 l 382 939 z "},"è":{"ha":772,"x_min":57,"x_max":653,"o":"m 406 799 l 279 996 l 281 1000 l 371 1000 l 475 799 l 406 799 m 625 263 q 522 59 607 132 q 310 -14 436 -14 q 125 59 193 -14 q 57 265 57 132 q 96 485 57 381 q 215 657 135 590 q 413 724 294 724 q 587 662 521 724 q 653 488 653 600 q 649 419 653 464 q 638 347 644 375 l 135 347 q 128 267 128 303 q 181 106 128 161 q 319 50 233 50 q 476 103 413 50 q 556 263 540 157 l 625 263 m 403 660 q 240 596 310 660 q 144 411 169 532 l 576 411 q 583 481 583 451 q 533 614 583 568 q 403 660 483 660 z "},"ē":{"ha":772,"x_min":57,"x_max":660,"o":"m 625 263 q 522 59 607 132 q 310 -14 436 -14 q 125 59 193 -14 q 57 265 57 132 q 96 485 57 381 q 215 657 135 590 q 413 724 294 724 q 587 662 521 724 q 653 488 653 600 q 649 419 653 464 q 638 347 644 375 l 135 347 q 128 267 128 303 q 181 106 128 161 q 319 50 233 50 q 476 103 413 50 q 556 263 540 157 l 625 263 m 403 660 q 240 596 310 660 q 144 411 169 532 l 576 411 q 583 481 583 451 q 533 614 583 568 q 403 660 483 660 m 207 960 l 218 1022 l 660 1022 l 649 960 l 207 960 z "},"ę":{"ha":772,"x_min":57,"x_max":653,"o":"m 135 347 q 128 267 128 303 q 181 106 128 161 q 319 50 233 50 q 476 103 413 50 q 556 263 540 157 l 625 263 q 555 92 611 160 q 411 0 499 25 l 418 0 l 413 -3 q 358 -44 378 -24 q 339 -93 339 -64 q 354 -128 339 -118 q 393 -139 369 -139 q 489 -119 428 -139 l 501 -165 q 379 -199 443 -199 q 293 -179 328 -199 q 258 -115 258 -160 q 328 -14 258 -57 l 310 -14 q 125 59 193 -14 q 57 265 57 132 q 96 485 57 381 q 215 657 135 590 q 413 724 294 724 q 587 662 521 724 q 653 488 653 600 q 649 419 653 464 q 638 347 644 375 l 135 347 m 403 660 q 240 596 310 660 q 144 411 169 532 l 576 411 q 583 481 583 451 q 533 614 583 568 q 403 660 483 660 z "},"f":{"ha":472,"x_min":-111,"x_max":461,"o":"m 100 646 l 108 710 l 186 710 l 207 857 q 262 972 218 933 q 371 1011 306 1011 q 421 1005 396 1011 q 461 988 446 999 l 453 925 q 410 940 436 933 q 369 947 385 947 q 309 928 333 947 q 278 854 285 910 l 257 710 l 422 710 l 414 646 l 249 646 l 143 -104 q -21 -258 121 -258 q -71 -252 -46 -258 q -111 -235 -96 -246 l -103 -172 q -60 -187 -86 -181 q -19 -194 -35 -194 q 41 -176 17 -194 q 72 -101 65 -157 l 178 646 l 100 646 z "},"g":{"ha":810,"x_min":29,"x_max":701,"o":"m 101 -31 q 160 -153 101 -112 q 299 -193 218 -193 q 454 -140 389 -193 q 533 11 519 -87 l 550 126 q 442 44 507 74 q 303 14 376 14 q 131 83 197 14 q 64 272 64 151 q 101 488 64 385 q 215 658 138 592 q 407 724 293 724 q 629 592 569 724 l 672 710 l 701 710 l 604 24 q 508 -183 586 -108 q 289 -258 431 -258 q 142 -224 200 -258 q 56 -138 83 -190 q 29 -31 29 -86 l 101 -31 m 319 78 q 474 131 414 78 q 562 267 535 183 q 589 443 589 350 q 539 609 589 558 q 404 660 489 660 q 251 603 311 660 q 164 460 192 547 q 136 276 136 374 q 186 128 136 178 q 319 78 236 78 z "},"ğ":{"ha":810,"x_min":29,"x_max":714,"o":"m 101 -31 q 160 -153 101 -112 q 299 -193 218 -193 q 454 -140 389 -193 q 533 11 519 -87 l 550 126 q 442 44 507 74 q 303 14 376 14 q 131 83 197 14 q 64 272 64 151 q 101 488 64 385 q 215 658 138 592 q 407 724 293 724 q 629 592 569 724 l 672 710 l 701 710 l 604 24 q 508 -183 586 -108 q 289 -258 431 -258 q 142 -224 200 -258 q 56 -138 83 -190 q 29 -31 29 -86 l 101 -31 m 319 78 q 474 131 414 78 q 562 267 535 183 q 589 443 589 350 q 539 609 589 558 q 404 660 489 660 q 251 603 311 660 q 164 460 192 547 q 136 276 136 374 q 186 128 136 178 q 319 78 236 78 m 422 851 q 299 875 356 851 q 210 936 243 899 q 178 1013 178 974 q 179 1024 178 1019 l 257 1024 q 314 947 267 974 q 432 919 361 919 q 557 947 501 919 q 636 1024 613 974 l 714 1024 q 666 943 708 983 q 558 877 624 903 q 422 851 493 851 z "},"ģ":{"ha":810,"x_min":29,"x_max":701,"o":"m 510 1057 q 483 987 500 1035 q 457 917 465 939 l 490 917 l 478 821 l 388 821 l 399 901 l 463 1057 l 510 1057 m 101 -31 q 160 -153 101 -112 q 299 -193 218 -193 q 454 -140 389 -193 q 533 11 519 -87 l 550 126 q 442 44 507 74 q 303 14 376 14 q 131 83 197 14 q 64 272 64 151 q 101 488 64 385 q 215 658 138 592 q 407 724 293 724 q 629 592 569 724 l 672 710 l 701 710 l 604 24 q 508 -183 586 -108 q 289 -258 431 -258 q 142 -224 200 -258 q 56 -138 83 -190 q 29 -31 29 -86 l 101 -31 m 319 78 q 474 131 414 78 q 562 267 535 183 q 589 443 589 350 q 539 609 589 558 q 404 660 489 660 q 251 603 311 660 q 164 460 192 547 q 136 276 136 374 q 186 128 136 178 q 319 78 236 78 z "},"h":{"ha":824,"x_min":58,"x_max":686,"o":"m 578 219 q 605 415 597 358 q 613 492 613 472 q 568 618 613 576 q 440 660 524 660 q 325 631 379 660 q 235 550 271 601 q 190 436 199 499 l 129 0 l 58 0 l 199 1000 l 269 1000 l 215 610 q 324 694 257 664 q 456 724 390 724 q 623 670 560 724 q 686 511 686 617 q 682 449 686 486 q 664 321 678 411 q 618 0 656 269 l 547 0 l 578 219 z "},"i":{"ha":361,"x_min":58,"x_max":275,"o":"m 193 1000 l 275 1000 l 265 925 l 183 925 l 193 1000 m 58 0 l 158 710 l 229 710 l 129 0 l 58 0 z "},"ı":{"ha":363,"x_min":60,"x_max":229,"o":"m 60 0 l 158 710 l 229 710 l 131 0 l 60 0 z "},"í":{"ha":363,"x_min":60,"x_max":415,"o":"m 163 799 l 325 1000 l 415 1000 l 414 996 l 232 799 l 163 799 m 60 0 l 158 710 l 229 710 l 131 0 l 60 0 z "},"î":{"ha":363,"x_min":74,"x_max":526,"o":"m 289 1000 l 369 1000 l 526 799 l 443 799 l 319 933 l 157 799 l 74 799 l 289 1000 m 158 0 l 257 710 l 328 710 l 229 0 l 158 0 z "},"ï":{"ha":363,"x_min":143,"x_max":490,"o":"m 156 1000 l 246 1000 l 233 904 l 143 904 l 156 1000 m 400 1000 l 490 1000 l 478 904 l 388 904 l 400 1000 m 161 0 l 260 710 l 331 710 l 232 0 l 161 0 z "},"ì":{"ha":363,"x_min":131,"x_max":326,"o":"m 257 799 l 131 996 l 132 1000 l 222 1000 l 326 799 l 257 799 m 153 0 l 251 710 l 322 710 l 224 0 l 153 0 z "},"ī":{"ha":363,"x_min":7,"x_max":460,"o":"m 60 0 l 158 710 l 229 710 l 131 0 l 60 0 m 7 960 l 18 1022 l 460 1022 l 449 960 l 7 960 z "},"į":{"ha":363,"x_min":-36,"x_max":275,"o":"m 193 1000 l 275 1000 l 265 925 l 183 925 l 193 1000 m 118 -3 q 64 -44 83 -24 q 44 -93 44 -64 q 60 -128 44 -118 q 99 -139 75 -139 q 194 -119 133 -139 l 207 -165 q 85 -199 149 -199 q -1 -179 33 -199 q -36 -115 -36 -160 q -12 -52 -36 -79 q 54 0 13 -25 l 60 0 l 158 710 l 229 710 l 131 0 l 124 0 l 118 -3 z "},"j":{"ha":361,"x_min":-133,"x_max":281,"o":"m 199 1000 l 281 1000 l 271 925 l 189 925 l 199 1000 m 235 710 l 119 -104 q 65 -220 108 -182 q -42 -258 22 -258 q -92 -252 -67 -258 q -133 -235 -117 -246 l -124 -172 q -82 -187 -107 -181 q -42 -194 -57 -194 q 18 -176 -7 -194 q 50 -101 43 -157 l 164 710 l 235 710 z "},"k":{"ha":742,"x_min":58,"x_max":719,"o":"m 319 322 l 154 176 l 129 0 l 58 0 l 199 1000 l 269 1000 l 165 258 l 632 710 l 719 710 l 374 375 l 643 0 l 551 0 l 319 322 z "},"ķ":{"ha":742,"x_min":58,"x_max":719,"o":"m 319 322 l 154 176 l 129 0 l 58 0 l 199 1000 l 269 1000 l 165 258 l 632 710 l 719 710 l 374 375 l 643 0 l 551 0 l 319 322 m 225 -347 q 252 -277 235 -325 q 278 -207 269 -229 l 244 -207 l 257 -111 l 347 -111 l 336 -192 l 272 -347 l 225 -347 z "},"l":{"ha":372,"x_min":64,"x_max":275,"o":"m 64 0 l 204 1000 l 275 1000 l 135 0 l 64 0 z "},"ĺ":{"ha":372,"x_min":64,"x_max":444,"o":"m 64 0 l 204 1000 l 275 1000 l 135 0 l 64 0 m 192 1042 l 354 1243 l 444 1243 l 443 1239 l 261 1042 l 192 1042 z "},"ľ":{"ha":372,"x_min":64,"x_max":454,"o":"m 64 0 l 204 1000 l 275 1000 l 135 0 l 64 0 m 333 717 q 359 787 342 739 q 385 857 376 835 l 351 857 l 364 953 l 454 953 l 443 872 l 381 717 l 333 717 z "},"ļ":{"ha":372,"x_min":4,"x_max":275,"o":"m 64 0 l 204 1000 l 275 1000 l 135 0 l 64 0 m 4 -347 q 31 -277 14 -325 q 57 -207 49 -229 l 24 -207 l 36 -111 l 126 -111 l 115 -192 l 51 -347 l 4 -347 z "},"ł":{"ha":413,"x_min":25,"x_max":388,"o":"m 97 0 l 163 469 l 25 404 l 32 465 l 172 531 l 238 1000 l 308 1000 l 247 565 l 388 632 l 379 571 l 239 504 l 168 0 l 97 0 z "},"m":{"ha":1204,"x_min":58,"x_max":1064,"o":"m 858 724 q 1007 671 950 724 q 1064 515 1064 618 q 1060 450 1064 488 q 1042 322 1056 413 l 996 0 l 925 0 q 972 338 926 7 q 988 444 983 411 q 992 501 992 478 q 844 660 992 660 q 699 596 761 660 q 624 436 638 532 l 563 0 l 492 0 q 538 325 482 -68 q 553 444 549 407 q 558 501 558 481 q 411 660 558 660 q 266 596 328 660 q 190 436 204 532 l 129 0 l 58 0 l 158 710 l 207 710 l 207 604 q 304 692 246 660 q 425 724 363 724 q 548 693 496 724 q 622 603 600 663 q 722 689 660 654 q 858 724 785 724 z "},"n":{"ha":824,"x_min":58,"x_max":685,"o":"m 547 0 q 613 492 613 465 q 568 618 613 576 q 440 660 524 660 q 325 631 379 660 q 235 550 271 601 q 190 436 199 499 l 129 0 l 58 0 l 158 710 l 206 710 l 206 604 q 317 692 250 660 q 456 724 385 724 q 622 670 560 724 q 685 511 685 617 q 679 447 685 493 q 663 328 674 401 q 647 217 653 256 l 617 0 l 547 0 z "},"ń":{"ha":824,"x_min":58,"x_max":685,"o":"m 547 0 q 613 492 613 465 q 568 618 613 576 q 440 660 524 660 q 325 631 379 660 q 235 550 271 601 q 190 436 199 499 l 129 0 l 58 0 l 158 710 l 206 710 l 206 604 q 317 692 250 660 q 456 724 385 724 q 622 670 560 724 q 685 511 685 617 q 679 447 685 493 q 663 328 674 401 q 647 217 653 256 l 617 0 l 547 0 m 404 799 l 567 1000 l 657 1000 l 656 996 l 474 799 l 404 799 z "},"ň":{"ha":824,"x_min":58,"x_max":701,"o":"m 547 0 q 613 492 613 465 q 568 618 613 576 q 440 660 524 660 q 325 631 379 660 q 235 550 271 601 q 190 436 199 499 l 129 0 l 58 0 l 158 710 l 206 710 l 206 604 q 317 692 250 660 q 456 724 385 724 q 622 670 560 724 q 685 511 685 617 q 679 447 685 493 q 663 328 674 401 q 647 217 653 256 l 617 0 l 547 0 m 249 1000 l 332 1000 l 456 865 l 618 1000 l 701 1000 l 486 799 l 406 799 l 249 1000 z "},"ņ":{"ha":824,"x_min":58,"x_max":685,"o":"m 547 0 q 613 492 613 465 q 568 618 613 576 q 440 660 524 660 q 325 631 379 660 q 235 550 271 601 q 190 436 199 499 l 129 0 l 58 0 l 158 710 l 206 710 l 206 604 q 317 692 250 660 q 456 724 385 724 q 622 670 560 724 q 685 511 685 617 q 679 447 685 493 q 663 328 674 401 q 647 217 653 256 l 617 0 l 547 0 m 243 -347 q 270 -277 253 -325 q 296 -207 288 -229 l 263 -207 l 275 -111 l 365 -111 l 354 -192 l 290 -347 l 243 -347 z "},"ñ":{"ha":824,"x_min":58,"x_max":729,"o":"m 729 999 q 685 921 724 957 q 574 885 647 885 q 517 890 543 885 q 450 908 490 896 q 347 929 388 929 q 292 919 313 929 q 263 885 272 908 l 211 885 q 255 963 217 926 q 367 999 293 999 q 424 993 397 999 q 490 975 450 988 q 593 954 553 954 q 648 965 628 954 q 678 999 668 975 l 729 999 m 547 0 q 613 492 613 465 q 568 618 613 576 q 440 660 524 660 q 325 631 379 660 q 235 550 271 601 q 190 436 199 499 l 129 0 l 58 0 l 158 710 l 206 710 l 206 604 q 317 692 250 660 q 456 724 385 724 q 622 670 560 724 q 685 511 685 617 q 679 447 685 493 q 663 328 674 401 q 647 217 653 256 l 617 0 l 547 0 z "},"o":{"ha":800,"x_min":57,"x_max":672,"o":"m 313 -14 q 126 60 194 -14 q 57 267 57 133 q 97 488 57 383 q 217 658 136 593 q 417 724 299 724 q 603 650 535 724 q 672 443 672 576 q 633 222 672 326 q 512 51 593 117 q 313 -14 431 -14 m 322 50 q 480 106 417 50 q 572 251 543 163 q 601 440 601 340 q 548 603 601 547 q 407 660 494 660 q 249 602 313 660 q 157 456 186 544 q 128 268 128 367 q 181 106 128 161 q 322 50 235 50 z "},"ó":{"ha":800,"x_min":57,"x_max":674,"o":"m 421 799 l 583 1000 l 674 1000 l 672 996 l 490 799 l 421 799 m 313 -14 q 126 60 194 -14 q 57 267 57 133 q 97 488 57 383 q 217 658 136 593 q 417 724 299 724 q 603 650 535 724 q 672 443 672 576 q 633 222 672 326 q 512 51 593 117 q 313 -14 431 -14 m 322 50 q 480 106 417 50 q 572 251 543 163 q 601 440 601 340 q 548 603 601 547 q 407 660 494 660 q 249 602 313 660 q 157 456 186 544 q 128 268 128 367 q 181 106 128 161 q 322 50 235 50 z "},"ô":{"ha":800,"x_min":57,"x_max":678,"o":"m 440 1000 l 521 1000 l 678 799 l 594 799 l 471 933 l 308 799 l 225 799 l 440 1000 m 313 -14 q 126 60 194 -14 q 57 267 57 133 q 97 488 57 383 q 217 658 136 593 q 417 724 299 724 q 603 650 535 724 q 672 443 672 576 q 633 222 672 326 q 512 51 593 117 q 313 -14 431 -14 m 322 50 q 480 106 417 50 q 572 251 543 163 q 601 440 601 340 q 548 603 601 547 q 407 660 494 660 q 249 602 313 660 q 157 456 186 544 q 128 268 128 367 q 181 106 128 161 q 322 50 235 50 z "},"ö":{"ha":800,"x_min":57,"x_max":672,"o":"m 307 1000 l 397 1000 l 385 904 l 294 904 l 307 1000 m 551 1000 l 642 1000 l 629 904 l 539 904 l 551 1000 m 313 -14 q 126 60 194 -14 q 57 267 57 133 q 97 488 57 383 q 217 658 136 593 q 417 724 299 724 q 603 650 535 724 q 672 443 672 576 q 633 222 672 326 q 512 51 593 117 q 313 -14 431 -14 m 322 50 q 480 106 417 50 q 572 251 543 163 q 601 440 601 340 q 548 603 601 547 q 407 660 494 660 q 249 602 313 660 q 157 456 186 544 q 128 268 128 367 q 181 106 128 161 q 322 50 235 50 z "},"ò":{"ha":800,"x_min":57,"x_max":672,"o":"m 403 799 l 276 996 l 278 1000 l 368 1000 l 472 799 l 403 799 m 313 -14 q 126 60 194 -14 q 57 267 57 133 q 97 488 57 383 q 217 658 136 593 q 417 724 299 724 q 603 650 535 724 q 672 443 672 576 q 633 222 672 326 q 512 51 593 117 q 313 -14 431 -14 m 322 50 q 480 106 417 50 q 572 251 543 163 q 601 440 601 340 q 548 603 601 547 q 407 660 494 660 q 249 602 313 660 q 157 456 186 544 q 128 268 128 367 q 181 106 128 161 q 322 50 235 50 z "},"ő":{"ha":800,"x_min":57,"x_max":726,"o":"m 313 -14 q 126 60 194 -14 q 57 267 57 133 q 97 488 57 383 q 217 658 136 593 q 417 724 299 724 q 603 650 535 724 q 672 443 672 576 q 633 222 672 326 q 512 51 593 117 q 313 -14 431 -14 m 322 50 q 480 106 417 50 q 572 251 543 163 q 601 440 601 340 q 548 603 601 547 q 407 660 494 660 q 249 602 313 660 q 157 456 186 544 q 128 268 128 367 q 181 106 128 161 q 322 50 235 50 m 301 799 l 464 1000 l 553 1000 l 553 994 l 371 799 l 301 799 m 475 799 l 638 1000 l 726 1000 l 726 994 l 544 799 l 475 799 z "},"ō":{"ha":800,"x_min":57,"x_max":688,"o":"m 313 -14 q 126 60 194 -14 q 57 267 57 133 q 97 488 57 383 q 217 658 136 593 q 417 724 299 724 q 603 650 535 724 q 672 443 672 576 q 633 222 672 326 q 512 51 593 117 q 313 -14 431 -14 m 322 50 q 480 106 417 50 q 572 251 543 163 q 601 440 601 340 q 548 603 601 547 q 407 660 494 660 q 249 602 313 660 q 157 456 186 544 q 128 268 128 367 q 181 106 128 161 q 322 50 235 50 m 235 960 l 246 1022 l 688 1022 l 676 960 l 235 960 z "},"ø":{"ha":800,"x_min":21,"x_max":742,"o":"m 329 -14 q 168 36 233 -14 l 83 -76 l 21 -76 l 132 71 q 74 267 74 144 q 113 488 74 383 q 234 658 153 593 q 433 724 315 724 q 592 675 528 724 l 679 790 l 742 790 l 628 640 q 689 443 689 567 q 649 222 689 326 q 528 51 610 117 q 329 -14 447 -14 m 144 268 q 178 131 144 186 l 549 618 q 424 660 499 660 q 266 602 329 660 q 174 456 203 544 q 144 268 144 367 m 339 50 q 497 106 433 50 q 589 251 560 163 q 618 440 618 340 q 582 581 618 528 l 211 92 q 339 50 261 50 z "},"õ":{"ha":800,"x_min":57,"x_max":718,"o":"m 718 1000 q 674 922 713 958 q 563 886 636 886 q 506 892 532 886 q 439 910 479 897 q 336 931 376 931 q 281 920 301 931 q 251 886 261 910 l 200 886 q 244 964 206 928 q 356 1000 282 1000 q 413 994 386 1000 q 479 976 439 989 q 582 956 542 956 q 637 966 617 956 q 667 1000 657 976 l 718 1000 m 313 -14 q 126 60 194 -14 q 57 267 57 133 q 97 488 57 383 q 217 658 136 593 q 417 724 299 724 q 603 650 535 724 q 672 443 672 576 q 633 222 672 326 q 512 51 593 117 q 313 -14 431 -14 m 322 50 q 480 106 417 50 q 572 251 543 163 q 601 440 601 340 q 548 603 601 547 q 407 660 494 660 q 249 602 313 660 q 157 456 186 544 q 128 268 128 367 q 181 106 128 161 q 322 50 235 50 z "},"œ":{"ha":1296,"x_min":83,"x_max":1208,"o":"m 443 724 q 594 680 532 724 q 683 554 657 636 q 801 678 729 633 q 968 724 872 724 q 1142 662 1076 724 q 1208 488 1208 600 q 1204 419 1208 464 q 1193 347 1200 375 l 690 347 q 683 267 683 303 q 736 106 683 161 q 875 50 789 50 q 1032 103 968 50 q 1111 263 1096 157 l 1181 263 q 1077 59 1163 132 q 865 -14 992 -14 q 713 30 775 -14 q 628 156 651 74 q 509 31 582 76 q 339 -14 436 -14 q 152 60 221 -14 q 83 267 83 133 q 123 488 83 383 q 244 658 163 593 q 443 724 325 724 m 349 50 q 506 106 443 50 q 599 251 569 163 q 628 440 628 340 q 574 603 628 547 q 433 660 521 660 q 276 602 339 660 q 183 456 213 544 q 154 268 154 367 q 208 106 154 161 q 349 50 261 50 m 958 660 q 795 596 865 660 q 700 411 725 532 l 1132 411 q 1139 481 1139 451 q 1089 614 1139 568 q 958 660 1039 660 z "},"p":{"ha":810,"x_min":24,"x_max":694,"o":"m 207 603 q 458 724 301 724 q 630 654 565 724 q 694 446 694 585 q 659 226 694 331 q 547 53 624 121 q 354 -14 471 -14 q 226 16 281 -14 q 144 99 172 46 l 94 -251 l 24 -251 l 158 710 l 206 710 l 207 603 m 442 660 q 286 600 347 660 q 198 451 225 540 q 171 264 171 361 q 222 103 171 157 q 357 50 274 50 q 509 107 449 50 q 597 253 569 164 q 624 440 624 342 q 574 608 624 556 q 442 660 525 660 z "},"þ":{"ha":808,"x_min":24,"x_max":694,"o":"m 269 1000 l 215 613 q 458 724 308 724 q 630 654 565 724 q 694 446 694 585 q 658 226 694 331 q 546 53 622 121 q 354 -14 469 -14 q 226 16 281 -14 q 144 99 172 46 l 94 -251 l 24 -251 l 200 1000 l 269 1000 m 442 660 q 287 600 347 660 q 199 450 226 540 q 171 264 171 360 q 222 103 171 157 q 357 50 274 50 q 510 108 450 50 q 597 255 569 165 q 624 443 624 344 q 574 608 624 557 q 442 660 525 660 z "},"q":{"ha":808,"x_min":56,"x_max":693,"o":"m 538 99 q 431 16 494 46 q 294 -14 368 -14 q 122 58 188 -14 q 56 258 56 129 q 93 476 56 369 q 208 653 131 583 q 399 724 285 724 q 621 592 561 724 l 664 710 l 693 710 l 558 -250 l 488 -250 l 538 99 m 311 50 q 466 107 406 50 q 553 253 526 164 q 581 443 581 342 q 531 609 581 558 q 396 660 481 660 q 244 601 304 660 q 156 453 183 543 q 128 263 128 363 q 178 103 128 157 q 311 50 228 50 z "},"r":{"ha":679,"x_min":58,"x_max":621,"o":"m 546 456 q 551 511 551 489 q 517 616 551 572 q 401 660 482 660 q 292 626 338 660 q 223 543 247 592 q 192 450 199 494 l 129 0 l 58 0 l 158 710 l 206 710 l 206 604 q 232 640 206 610 q 307 697 258 671 q 424 724 356 724 q 571 670 521 724 q 621 532 621 617 q 617 483 621 511 q 611 456 613 454 l 546 456 z "},"ŕ":{"ha":679,"x_min":58,"x_max":621,"o":"m 546 456 q 551 511 551 489 q 517 616 551 572 q 401 660 482 660 q 292 626 338 660 q 223 543 247 592 q 192 450 199 494 l 129 0 l 58 0 l 158 710 l 206 710 l 206 604 q 232 640 206 610 q 307 697 258 671 q 424 724 356 724 q 571 670 521 724 q 621 532 621 617 q 617 483 621 511 q 611 456 613 454 l 546 456 m 161 799 l 324 1000 l 414 1000 l 413 996 l 231 799 l 161 799 z "},"ř":{"ha":679,"x_min":6,"x_max":621,"o":"m 546 456 q 551 511 551 489 q 517 616 551 572 q 401 660 482 660 q 292 626 338 660 q 223 543 247 592 q 192 450 199 494 l 129 0 l 58 0 l 158 710 l 206 710 l 206 604 q 232 640 206 610 q 307 697 258 671 q 424 724 356 724 q 571 670 521 724 q 621 532 621 617 q 617 483 621 511 q 611 456 613 454 l 546 456 m 6 1000 l 89 1000 l 213 865 l 375 1000 l 458 1000 l 243 799 l 163 799 l 6 1000 z "},"ŗ":{"ha":679,"x_min":-1,"x_max":621,"o":"m 546 456 q 551 511 551 489 q 517 616 551 572 q 401 660 482 660 q 292 626 338 660 q 223 543 247 592 q 192 450 199 494 l 129 0 l 58 0 l 158 710 l 206 710 l 206 604 q 232 640 206 610 q 307 697 258 671 q 424 724 356 724 q 571 670 521 724 q 621 532 621 617 q 617 483 621 511 q 611 456 613 454 l 546 456 m -1 -347 q 26 -277 8 -325 q 51 -207 43 -229 l 18 -207 l 31 -111 l 121 -111 l 110 -192 l 46 -347 l -1 -347 z "},"s":{"ha":744,"x_min":32,"x_max":639,"o":"m 110 218 q 104 178 104 201 q 160 83 104 115 q 315 50 215 50 q 478 94 418 50 q 538 207 538 138 q 511 274 538 249 q 445 311 485 299 q 339 336 406 324 q 214 369 261 353 q 133 419 167 385 q 100 515 100 454 q 133 621 100 574 q 231 696 165 668 q 392 724 297 724 q 533 699 478 724 q 614 635 589 674 q 639 554 639 597 q 637 528 639 542 q 633 513 635 514 l 564 513 q 566 525 564 514 q 568 549 568 536 q 529 626 568 592 q 383 660 490 660 q 214 613 256 660 q 172 522 172 565 q 198 460 172 483 q 261 426 224 438 q 364 400 299 414 q 493 367 444 383 q 576 314 542 350 q 610 215 610 278 q 523 40 610 94 q 301 -14 436 -14 q 142 14 203 -14 q 57 82 82 42 q 32 164 32 122 q 40 218 32 192 l 110 218 z "},"ś":{"ha":744,"x_min":32,"x_max":639,"o":"m 110 218 q 104 178 104 201 q 160 83 104 115 q 315 50 215 50 q 478 94 418 50 q 538 207 538 138 q 511 274 538 249 q 445 311 485 299 q 339 336 406 324 q 214 369 261 353 q 133 419 167 385 q 100 515 100 454 q 133 621 100 574 q 231 696 165 668 q 392 724 297 724 q 533 699 478 724 q 614 635 589 674 q 639 554 639 597 q 637 528 639 542 q 633 513 635 514 l 564 513 q 566 525 564 514 q 568 549 568 536 q 529 626 568 592 q 383 660 490 660 q 214 613 256 660 q 172 522 172 565 q 198 460 172 483 q 261 426 224 438 q 364 400 299 414 q 493 367 444 383 q 576 314 542 350 q 610 215 610 278 q 523 40 610 94 q 301 -14 436 -14 q 142 14 203 -14 q 57 82 82 42 q 32 164 32 122 q 40 218 32 192 l 110 218 m 336 799 l 499 1000 l 589 1000 l 588 996 l 406 799 l 336 799 z "},"š":{"ha":744,"x_min":32,"x_max":653,"o":"m 200 1000 l 283 1000 l 407 865 l 569 1000 l 653 1000 l 438 799 l 357 799 l 200 1000 m 110 218 q 104 178 104 201 q 160 83 104 115 q 315 50 215 50 q 478 94 418 50 q 538 207 538 138 q 511 274 538 249 q 445 311 485 299 q 339 336 406 324 q 214 369 261 353 q 133 419 167 385 q 100 515 100 454 q 133 621 100 574 q 231 696 165 668 q 392 724 297 724 q 533 699 478 724 q 614 635 589 674 q 639 554 639 597 q 637 528 639 542 q 633 513 635 514 l 564 513 q 566 525 564 514 q 568 549 568 536 q 529 626 568 592 q 383 660 490 660 q 214 613 256 660 q 172 522 172 565 q 198 460 172 483 q 261 426 224 438 q 364 400 299 414 q 493 367 444 383 q 576 314 542 350 q 610 215 610 278 q 523 40 610 94 q 301 -14 436 -14 q 142 14 203 -14 q 57 82 82 42 q 32 164 32 122 q 40 218 32 192 l 110 218 z "},"ş":{"ha":744,"x_min":32,"x_max":639,"o":"m 110 218 q 104 178 104 201 q 160 83 104 115 q 315 50 215 50 q 478 94 418 50 q 538 207 538 138 q 511 274 538 249 q 445 311 485 299 q 339 336 406 324 q 214 369 261 353 q 133 419 167 385 q 100 515 100 454 q 133 621 100 574 q 231 696 165 668 q 392 724 297 724 q 533 699 478 724 q 614 635 589 674 q 639 554 639 597 q 637 528 639 542 q 633 513 635 514 l 564 513 q 566 525 564 514 q 568 549 568 536 q 529 626 568 592 q 383 660 490 660 q 214 613 256 660 q 172 522 172 565 q 198 460 172 483 q 261 426 224 438 q 364 400 299 414 q 493 367 444 383 q 576 314 542 350 q 610 215 610 278 q 523 40 610 94 q 301 -14 436 -14 q 142 14 203 -14 q 57 82 82 42 q 32 164 32 122 q 40 218 32 192 l 110 218 m 179 -192 q 272 -210 210 -210 q 353 -190 318 -210 q 389 -126 389 -171 q 367 -85 389 -100 q 317 -71 346 -71 l 286 -71 l 293 -24 q 416 -42 372 -24 q 460 -125 460 -61 q 401 -240 460 -206 q 276 -274 343 -274 q 171 -256 215 -274 l 179 -192 z "},"ș":{"ha":744,"x_min":32,"x_max":639,"o":"m 110 218 q 104 178 104 201 q 160 83 104 115 q 315 50 215 50 q 478 94 418 50 q 538 207 538 138 q 511 274 538 249 q 445 311 485 299 q 339 336 406 324 q 214 369 261 353 q 133 419 167 385 q 100 515 100 454 q 133 621 100 574 q 231 696 165 668 q 392 724 297 724 q 533 699 478 724 q 614 635 589 674 q 639 554 639 597 q 637 528 639 542 q 633 513 635 514 l 564 513 q 566 525 564 514 q 568 549 568 536 q 529 626 568 592 q 383 660 490 660 q 214 613 256 660 q 172 522 172 565 q 198 460 172 483 q 261 426 224 438 q 364 400 299 414 q 493 367 444 383 q 576 314 542 350 q 610 215 610 278 q 523 40 610 94 q 301 -14 436 -14 q 142 14 203 -14 q 57 82 82 42 q 32 164 32 122 q 40 218 32 192 l 110 218 m 226 -347 q 253 -277 236 -325 q 279 -207 271 -229 l 246 -207 l 258 -111 l 349 -111 l 338 -192 l 274 -347 l 226 -347 z "},"ß":{"ha":853,"x_min":75,"x_max":761,"o":"m 589 535 q 689 451 651 510 q 726 318 726 392 q 678 160 726 233 q 551 44 631 88 q 385 0 472 0 l 257 0 l 265 64 l 393 64 q 520 98 460 64 q 617 189 581 132 q 654 311 654 246 q 598 447 654 392 q 456 501 542 501 l 328 501 l 336 565 l 449 565 q 568 595 513 565 q 656 676 624 625 q 689 785 689 726 q 642 901 689 856 q 517 947 596 947 q 344 883 414 947 q 258 714 274 819 l 146 -92 l 75 -92 l 178 646 l 100 646 l 110 710 l 188 710 q 247 868 200 800 q 365 974 293 936 q 525 1011 438 1011 q 649 983 594 1011 q 732 904 703 954 q 761 793 761 854 q 710 640 761 714 q 588 539 660 565 l 589 535 z "},"t":{"ha":478,"x_min":86,"x_max":410,"o":"m 311 10 q 213 -14 267 -14 q 123 16 156 -14 q 90 106 90 46 q 93 140 90 115 l 164 646 l 86 646 l 96 710 l 174 710 l 231 936 l 276 936 l 244 710 l 410 710 l 400 646 l 235 646 l 164 143 q 161 117 161 124 q 180 63 161 76 q 231 50 199 50 q 273 57 246 50 q 319 72 300 64 l 311 10 z "},"ť":{"ha":478,"x_min":86,"x_max":604,"o":"m 311 10 q 213 -14 267 -14 q 123 16 156 -14 q 90 106 90 46 q 93 140 90 115 l 164 646 l 86 646 l 96 710 l 174 710 l 231 936 l 276 936 l 244 710 l 410 710 l 400 646 l 235 646 l 164 143 q 161 117 161 124 q 180 63 161 76 q 231 50 199 50 q 273 57 246 50 q 319 72 300 64 l 311 10 m 483 717 q 509 787 492 739 q 535 857 526 835 l 501 857 l 514 953 l 604 953 l 593 872 l 531 717 l 483 717 z "},"ţ":{"ha":478,"x_min":38,"x_max":410,"o":"m 311 10 q 213 -14 267 -14 q 123 16 156 -14 q 90 106 90 46 q 93 140 90 115 l 164 646 l 86 646 l 96 710 l 174 710 l 231 936 l 276 936 l 244 710 l 410 710 l 400 646 l 235 646 l 164 143 q 161 117 161 124 q 180 63 161 76 q 231 50 199 50 q 273 57 246 50 q 319 72 300 64 l 311 10 m 46 -192 q 139 -210 76 -210 q 220 -190 185 -210 q 256 -126 256 -171 q 234 -85 256 -100 q 183 -71 213 -71 l 153 -71 l 160 -24 q 283 -42 239 -24 q 326 -125 326 -61 q 268 -240 326 -206 q 143 -274 210 -274 q 38 -256 82 -274 l 46 -192 z "},"ț":{"ha":478,"x_min":86,"x_max":410,"o":"m 311 10 q 213 -14 267 -14 q 123 16 156 -14 q 90 106 90 46 q 93 140 90 115 l 164 646 l 86 646 l 96 710 l 174 710 l 231 936 l 276 936 l 244 710 l 410 710 l 400 646 l 235 646 l 164 143 q 161 117 161 124 q 180 63 161 76 q 231 50 199 50 q 273 57 246 50 q 319 72 300 64 l 311 10 m 93 -347 q 120 -277 103 -325 q 146 -207 138 -229 l 113 -207 l 125 -111 l 215 -111 l 204 -192 l 140 -347 l 93 -347 z "},"u":{"ha":857,"x_min":81,"x_max":726,"o":"m 553 106 q 442 18 508 50 q 307 -14 376 -14 q 142 39 203 -14 q 81 197 81 92 q 109 438 81 238 q 149 710 138 639 l 219 710 q 154 218 154 269 q 198 90 154 129 q 326 50 242 50 q 442 79 388 50 q 532 160 496 108 q 576 274 568 211 l 638 710 l 708 710 q 658 355 694 614 q 621 85 621 96 q 653 50 621 50 q 726 72 685 50 l 718 13 q 631 -14 676 -14 q 569 11 588 -14 q 550 76 550 36 q 553 106 550 86 z "},"ú":{"ha":857,"x_min":81,"x_max":726,"o":"m 401 799 l 564 1000 l 654 1000 l 653 996 l 471 799 l 401 799 m 553 106 q 442 18 508 50 q 307 -14 376 -14 q 142 39 203 -14 q 81 197 81 92 q 109 438 81 238 q 149 710 138 639 l 219 710 q 182 447 210 640 q 154 218 154 253 q 198 90 154 129 q 326 50 242 50 q 442 79 388 50 q 532 160 496 108 q 576 274 568 211 l 638 710 l 708 710 q 658 355 694 614 q 621 85 621 96 q 653 50 621 50 q 726 72 685 50 l 718 13 q 631 -14 676 -14 q 569 11 588 -14 q 550 76 550 36 q 553 106 550 86 z "},"û":{"ha":857,"x_min":81,"x_max":726,"o":"m 421 1000 l 501 1000 l 658 799 l 575 799 l 451 933 l 289 799 l 206 799 l 421 1000 m 553 106 q 442 18 508 50 q 307 -14 376 -14 q 142 39 203 -14 q 81 197 81 92 q 109 438 81 238 q 149 710 138 639 l 219 710 q 182 447 210 640 q 154 218 154 253 q 198 90 154 129 q 326 50 242 50 q 442 79 388 50 q 532 160 496 108 q 576 274 568 211 l 638 710 l 708 710 q 658 355 694 614 q 621 85 621 96 q 653 50 621 50 q 726 72 685 50 l 718 13 q 631 -14 676 -14 q 569 11 588 -14 q 550 76 550 36 q 553 106 550 86 z "},"ü":{"ha":857,"x_min":81,"x_max":726,"o":"m 290 1000 l 381 1000 l 368 904 l 278 904 l 290 1000 m 535 1000 l 625 1000 l 613 904 l 522 904 l 535 1000 m 553 106 q 442 18 508 50 q 307 -14 376 -14 q 142 39 203 -14 q 81 197 81 92 q 109 438 81 238 q 149 710 138 639 l 219 710 q 182 447 210 640 q 154 218 154 253 q 198 90 154 129 q 326 50 242 50 q 442 79 388 50 q 532 160 496 108 q 576 274 568 211 l 638 710 l 708 710 q 658 355 694 614 q 621 85 621 96 q 653 50 621 50 q 726 72 685 50 l 718 13 q 631 -14 676 -14 q 569 11 588 -14 q 550 76 550 36 q 553 106 550 86 z "},"ù":{"ha":857,"x_min":81,"x_max":726,"o":"m 418 799 l 292 996 l 293 1000 l 383 1000 l 488 799 l 418 799 m 553 106 q 442 18 508 50 q 307 -14 376 -14 q 142 39 203 -14 q 81 197 81 92 q 109 438 81 238 q 149 710 138 639 l 219 710 q 182 447 210 640 q 154 218 154 253 q 198 90 154 129 q 326 50 242 50 q 442 79 388 50 q 532 160 496 108 q 576 274 568 211 l 638 710 l 708 710 q 658 355 694 614 q 621 85 621 96 q 653 50 621 50 q 726 72 685 50 l 718 13 q 631 -14 676 -14 q 569 11 588 -14 q 550 76 550 36 q 553 106 550 86 z "},"ű":{"ha":857,"x_min":81,"x_max":733,"o":"m 553 106 q 442 18 508 50 q 307 -14 376 -14 q 142 39 203 -14 q 81 197 81 92 q 109 438 81 238 q 149 710 138 639 l 219 710 q 154 218 154 269 q 198 90 154 129 q 326 50 242 50 q 442 79 388 50 q 532 160 496 108 q 576 274 568 211 l 638 710 l 708 710 q 658 355 694 614 q 621 85 621 96 q 653 50 621 50 q 726 72 685 50 l 718 13 q 631 -14 676 -14 q 569 11 588 -14 q 550 76 550 36 q 553 106 550 86 m 308 799 l 471 1000 l 560 1000 l 560 994 l 378 799 l 308 799 m 482 799 l 644 1000 l 733 1000 l 733 994 l 551 799 l 482 799 z "},"ū":{"ha":857,"x_min":81,"x_max":726,"o":"m 553 106 q 442 18 508 50 q 307 -14 376 -14 q 142 39 203 -14 q 81 197 81 92 q 109 438 81 238 q 149 710 138 639 l 219 710 q 154 218 154 269 q 198 90 154 129 q 326 50 242 50 q 442 79 388 50 q 532 160 496 108 q 576 274 568 211 l 638 710 l 708 710 q 658 355 694 614 q 621 85 621 96 q 653 50 621 50 q 726 72 685 50 l 718 13 q 631 -14 676 -14 q 569 11 588 -14 q 550 76 550 36 q 553 106 550 86 m 242 960 l 253 1022 l 694 1022 l 683 960 l 242 960 z "},"ų":{"ha":857,"x_min":81,"x_max":800,"o":"m 800 -165 q 678 -199 742 -199 q 592 -179 626 -199 q 557 -115 557 -160 q 575 -60 557 -83 q 625 -14 593 -36 q 567 13 585 -12 q 550 76 550 38 q 553 106 550 86 q 442 18 508 50 q 307 -14 376 -14 q 142 39 203 -14 q 81 197 81 92 q 109 438 81 238 q 149 710 138 639 l 219 710 q 154 218 154 269 q 198 90 154 129 q 326 50 242 50 q 442 79 388 50 q 532 160 496 108 q 576 274 568 211 l 638 710 l 708 710 q 658 355 694 614 q 621 85 621 96 q 653 50 621 50 q 726 72 685 50 l 718 13 l 694 0 l 717 0 l 711 -3 q 657 -44 676 -24 q 638 -93 638 -64 q 653 -128 638 -118 q 692 -139 668 -139 q 788 -119 726 -139 l 800 -165 z "},"ů":{"ha":857,"x_min":81,"x_max":726,"o":"m 553 106 q 442 18 508 50 q 307 -14 376 -14 q 142 39 203 -14 q 81 197 81 92 q 109 438 81 238 q 149 710 138 639 l 219 710 q 154 218 154 269 q 198 90 154 129 q 326 50 242 50 q 442 79 388 50 q 532 160 496 108 q 576 274 568 211 l 638 710 l 708 710 q 658 355 694 614 q 621 85 621 96 q 653 50 621 50 q 726 72 685 50 l 718 13 q 631 -14 676 -14 q 569 11 588 -14 q 550 76 550 36 q 553 106 550 86 m 597 917 q 550 804 597 851 q 436 757 503 757 q 349 791 383 757 q 314 878 314 825 q 337 958 314 922 q 397 1015 360 994 q 476 1036 435 1036 q 563 1002 528 1036 q 597 917 597 968 m 443 807 q 516 838 485 807 q 547 910 547 868 q 525 965 547 943 q 469 986 503 986 q 396 956 428 986 q 364 883 364 925 q 387 828 364 850 q 443 807 410 807 z "},"v":{"ha":711,"x_min":60,"x_max":696,"o":"m 310 0 l 247 0 l 60 710 l 136 710 l 293 103 l 299 103 l 626 710 l 696 710 l 310 0 z "},"w":{"ha":1124,"x_min":69,"x_max":1107,"o":"m 272 0 l 217 0 l 69 710 l 143 710 l 263 129 l 268 129 l 550 710 l 632 710 l 751 129 l 757 129 l 1039 710 l 1107 710 l 761 0 l 706 0 l 578 619 l 572 619 l 272 0 z "},"x":{"ha":718,"x_min":-32,"x_max":661,"o":"m 488 0 l 315 307 l 310 307 l 47 0 l -32 0 l 281 364 l 76 710 l 165 710 l 331 421 l 336 421 l 581 710 l 661 710 l 361 364 l 575 0 l 488 0 z "},"y":{"ha":708,"x_min":-26,"x_max":694,"o":"m 317 18 q 289 -35 293 -26 q 219 -158 247 -114 q 151 -231 190 -203 q 60 -258 113 -258 q -26 -239 14 -258 l -17 -175 q 56 -194 25 -194 q 136 -160 106 -194 q 200 -67 167 -126 l 243 11 l 58 710 l 135 710 l 292 106 l 297 106 l 625 710 l 694 710 l 317 18 z "},"ý":{"ha":708,"x_min":-26,"x_max":694,"o":"m 346 799 l 508 1000 l 599 1000 l 597 996 l 415 799 l 346 799 m 317 18 q 289 -35 293 -26 q 219 -158 247 -114 q 151 -231 190 -203 q 60 -258 113 -258 q -26 -239 14 -258 l -17 -175 q 56 -194 25 -194 q 136 -160 106 -194 q 200 -67 167 -126 l 243 11 l 58 710 l 135 710 l 292 106 l 297 106 l 625 710 l 694 710 l 317 18 z "},"ÿ":{"ha":708,"x_min":-26,"x_max":694,"o":"m 239 1000 l 329 1000 l 317 904 l 226 904 l 239 1000 m 483 1000 l 574 1000 l 561 904 l 471 904 l 483 1000 m 317 18 q 289 -35 293 -26 q 219 -158 247 -114 q 151 -231 190 -203 q 60 -258 113 -258 q -26 -239 14 -258 l -17 -175 q 56 -194 25 -194 q 136 -160 106 -194 q 200 -67 167 -126 l 243 11 l 58 710 l 135 710 l 292 106 l 297 106 l 625 710 l 694 710 l 317 18 z "},"z":{"ha":643,"x_min":-6,"x_max":582,"o":"m -6 0 l -1 33 l 469 646 l 108 646 l 117 710 l 582 710 l 578 676 l 106 64 l 503 64 l 494 0 l -6 0 z "},"ź":{"ha":643,"x_min":-6,"x_max":582,"o":"m -6 0 l -1 33 l 469 646 l 108 646 l 117 710 l 582 710 l 578 676 l 106 64 l 503 64 l 494 0 l -6 0 m 314 799 l 476 1000 l 567 1000 l 565 996 l 383 799 l 314 799 z "},"ž":{"ha":643,"x_min":-6,"x_max":608,"o":"m 156 1000 l 239 1000 l 363 865 l 525 1000 l 608 1000 l 393 799 l 313 799 l 156 1000 m -6 0 l -1 33 l 469 646 l 108 646 l 117 710 l 582 710 l 578 676 l 106 64 l 503 64 l 494 0 l -6 0 z "},"ż":{"ha":643,"x_min":-6,"x_max":582,"o":"m -6 0 l -1 33 l 469 646 l 108 646 l 117 710 l 582 710 l 578 676 l 106 64 l 503 64 l 494 0 l -6 0 m 346 939 l 436 939 l 424 843 l 333 843 l 346 939 z "},"ﬁ":{"ha":783,"x_min":-111,"x_max":707,"o":"m 100 646 l 108 710 l 186 710 l 207 857 q 262 972 218 933 q 371 1011 306 1011 q 421 1005 396 1011 q 461 988 446 999 l 453 925 q 410 940 436 933 q 369 947 385 947 q 309 928 333 947 q 278 854 285 910 l 257 710 l 422 710 l 414 646 l 249 646 l 143 -104 q -21 -258 121 -258 q -71 -252 -46 -258 q -111 -235 -96 -246 l -103 -172 q -60 -187 -86 -181 q -19 -194 -35 -194 q 41 -176 17 -194 q 72 -101 65 -157 l 178 646 l 100 646 m 625 1000 l 707 1000 l 697 925 l 615 925 l 625 1000 m 490 0 l 590 710 l 661 710 l 561 0 l 490 0 z "},"ﬂ":{"ha":781,"x_min":-111,"x_max":707,"o":"m 100 646 l 108 710 l 186 710 l 207 857 q 262 972 218 933 q 371 1011 306 1011 q 421 1005 396 1011 q 461 988 446 999 l 453 925 q 410 940 436 933 q 369 947 385 947 q 309 928 333 947 q 278 854 285 910 l 257 710 l 422 710 l 414 646 l 249 646 l 143 -104 q -21 -258 121 -258 q -71 -252 -46 -258 q -111 -235 -96 -246 l -103 -172 q -60 -187 -86 -181 q -19 -194 -35 -194 q 41 -176 17 -194 q 72 -101 65 -157 l 178 646 l 100 646 m 496 0 l 636 1000 l 707 1000 l 567 0 l 496 0 z "},"ª":{"ha":582,"x_min":100,"x_max":506,"o":"m 390 576 q 247 514 336 514 q 140 558 181 514 q 100 688 100 601 q 122 823 100 758 q 192 929 144 888 q 311 971 240 971 q 439 900 404 971 l 442 904 l 460 963 l 493 963 q 467 774 485 904 q 442 578 449 643 q 458 558 442 558 q 506 575 472 558 l 500 532 q 444 514 474 514 q 404 530 417 514 q 392 572 392 546 l 390 576 m 257 558 q 380 630 340 558 q 419 799 419 701 q 390 894 419 863 q 310 926 360 926 q 188 854 228 926 q 149 689 149 782 q 178 590 149 621 q 257 558 207 558 z "},"º":{"ha":544,"x_min":126,"x_max":506,"o":"m 285 519 q 169 565 213 519 q 126 693 126 611 q 151 829 126 765 q 225 933 175 893 q 347 974 275 974 q 463 928 419 974 q 506 800 506 882 q 481 664 506 728 q 407 560 457 600 q 285 519 357 519 m 290 564 q 415 633 374 564 q 457 799 457 703 q 426 896 457 863 q 342 929 394 929 q 217 858 258 929 q 175 693 175 788 q 206 597 175 629 q 290 564 238 564 z "},"Δ":{"ha":938,"x_min":25,"x_max":822,"o":"m 35 67 l 492 953 l 614 953 l 822 67 l 813 0 l 25 0 l 35 67 m 125 76 l 733 76 l 543 888 l 125 76 z "},"Ω":{"ha":1022,"x_min":43,"x_max":893,"o":"m 893 633 q 845 305 893 471 q 690 61 797 139 l 789 67 l 851 67 l 843 0 l 500 0 l 506 40 q 696 142 619 54 q 799 425 772 231 q 819 631 819 575 q 753 840 819 781 q 571 900 688 900 q 342 815 432 900 q 221 511 251 731 q 205 385 210 431 q 200 314 200 339 q 249 115 200 178 q 392 40 299 53 l 386 0 l 43 0 l 51 67 l 114 67 l 215 61 q 128 324 128 146 q 144 494 128 379 q 296 864 185 761 q 579 967 407 967 q 810 892 726 967 q 893 633 893 818 z "},"μ":{"ha":831,"x_min":65,"x_max":774,"o":"m 375 50 q 490 79 436 50 q 581 160 544 108 q 625 274 617 211 l 686 710 l 757 710 q 669 83 669 92 q 701 50 669 50 q 774 72 735 50 l 765 13 q 672 -14 721 -14 q 616 11 633 -14 q 599 75 599 36 q 601 106 599 86 q 492 17 557 49 q 358 -14 428 -14 q 247 8 297 -14 q 169 71 196 29 q 170 60 169 68 q 171 40 171 53 q 168 1 171 26 l 136 -224 l 65 -224 l 197 710 l 268 710 q 201 217 201 246 q 247 92 201 135 q 375 50 293 50 z "},"π":{"ha":871,"x_min":54,"x_max":813,"o":"m 638 424 q 604 188 614 267 q 594 68 594 108 q 600 0 594 22 l 533 0 q 525 63 525 25 q 531 151 525 104 q 565 401 536 199 l 600 646 l 315 646 q 228 291 288 494 q 122 0 169 88 l 54 0 q 162 298 106 101 q 246 646 218 494 q 74 628 125 646 l 65 672 q 264 708 131 708 l 813 708 l 794 646 l 669 646 l 638 424 z "},"¹":{"ha":418,"x_min":18,"x_max":332,"o":"m 25 639 l 167 639 l 224 1035 l 82 1035 l 88 1075 q 169 1084 133 1078 q 261 1107 206 1090 l 292 1107 l 225 639 l 332 639 l 325 586 l 18 586 l 25 639 z "},"²":{"ha":464,"x_min":18,"x_max":421,"o":"m 21 613 q 51 687 25 656 q 122 746 76 718 l 285 844 q 364 971 364 893 q 338 1040 364 1014 q 265 1065 313 1065 q 168 1024 207 1065 q 129 922 129 982 l 72 922 q 99 1019 72 974 q 171 1091 125 1064 q 272 1118 217 1118 q 381 1079 342 1118 q 421 979 421 1040 q 304 796 421 867 l 133 692 q 89 639 92 667 l 378 639 l 371 586 l 18 586 l 21 613 z "},"³":{"ha":467,"x_min":36,"x_max":419,"o":"m 97 744 q 92 708 92 721 q 213 624 92 624 q 303 654 268 624 q 339 739 339 685 q 309 802 339 781 q 231 824 279 824 l 165 824 l 172 875 l 233 875 q 325 902 288 875 q 363 982 363 929 q 335 1040 363 1019 q 264 1061 307 1061 q 179 1036 214 1061 q 139 967 144 1011 l 136 949 l 81 949 l 83 967 q 146 1074 93 1035 q 271 1113 199 1113 q 378 1081 336 1113 q 419 990 419 1049 q 397 906 419 935 q 329 853 374 876 q 394 747 394 822 q 342 620 394 667 q 206 574 290 574 q 83 608 129 574 q 36 701 36 643 q 42 744 36 721 l 97 744 z "},"⁄":{"ha":665,"x_min":-50,"x_max":728,"o":"m 15 0 l -50 0 l 667 953 l 728 953 l 15 0 z "},"½":{"ha":1010,"x_min":50,"x_max":957,"o":"m 57 485 l 199 485 l 254 881 l 113 881 l 118 921 q 201 930 165 924 q 293 953 238 936 l 324 953 l 257 485 l 364 485 l 357 432 l 50 432 l 57 485 m 181 0 l 115 0 l 833 953 l 894 953 l 181 0 m 557 26 q 589 102 564 71 q 657 160 614 133 l 819 258 q 899 388 899 307 q 874 454 899 429 q 801 479 849 479 q 703 438 743 479 q 664 336 664 396 l 607 336 q 636 437 607 392 q 712 507 665 482 q 808 532 758 532 q 917 493 878 532 q 957 393 957 454 q 840 210 957 281 l 669 106 q 625 53 628 81 l 914 53 l 906 0 l 553 0 l 557 26 z "},"¼":{"ha":974,"x_min":53,"x_max":929,"o":"m 60 485 l 201 485 l 257 881 l 115 881 l 121 921 q 204 930 168 924 q 296 953 240 936 l 326 953 l 260 485 l 367 485 l 360 432 l 53 432 l 60 485 m 183 0 l 118 0 l 836 953 l 897 953 l 183 0 m 839 368 q 876 432 864 407 l 904 432 l 869 188 l 929 188 l 922 136 l 863 136 l 843 0 l 786 0 l 806 136 l 554 136 l 561 183 q 665 326 590 214 q 782 521 740 438 l 842 521 q 737 336 800 435 q 629 188 674 238 l 813 188 l 839 368 z "},"¾":{"ha":969,"x_min":74,"x_max":968,"o":"m 135 593 q 129 557 129 569 q 250 472 129 472 q 341 503 306 472 q 376 588 376 533 q 347 651 376 629 q 268 672 317 672 l 203 672 l 210 724 l 271 724 q 363 751 325 724 q 400 831 400 778 q 372 889 400 868 q 301 910 344 910 q 217 885 251 910 q 176 815 182 860 l 174 797 l 118 797 l 121 815 q 183 922 131 883 q 308 961 236 961 q 415 929 374 961 q 457 839 457 897 q 434 754 457 783 q 367 701 411 725 q 432 596 432 671 q 380 469 432 515 q 243 422 328 422 q 120 457 167 422 q 74 550 74 492 q 79 593 74 569 l 135 593 m 243 0 l 178 0 l 894 953 l 956 953 l 243 0 m 876 368 q 915 432 900 404 l 943 432 l 908 188 l 968 188 l 961 136 l 901 136 l 882 0 l 825 0 l 844 136 l 593 136 l 599 183 q 703 324 628 213 q 821 521 778 436 l 881 521 q 776 337 840 436 q 668 188 713 238 l 851 188 l 876 368 z "},"*":{"ha":651,"x_min":82,"x_max":628,"o":"m 382 667 l 513 482 l 438 432 l 339 642 l 186 438 l 124 486 l 310 669 l 82 728 l 121 808 l 331 711 l 347 953 l 433 953 l 375 708 l 615 803 l 628 721 l 382 667 z "},"\\":{"ha":824,"x_min":94,"x_max":588,"o":"m 504 0 l 94 953 l 178 953 l 588 0 l 504 0 z "},"·":{"ha":326,"x_min":111,"x_max":214,"o":"m 124 449 l 214 449 l 201 353 l 111 353 l 124 449 z "},"•":{"ha":833,"x_min":228,"x_max":624,"o":"m 624 503 q 596 395 624 446 q 517 313 568 344 q 397 282 465 282 q 276 331 325 282 q 228 450 228 379 q 256 562 228 511 q 334 643 283 613 q 451 674 385 674 q 575 625 526 674 q 624 503 624 576 z "},":":{"ha":331,"x_min":39,"x_max":228,"o":"m 138 710 l 228 710 l 215 614 l 125 614 l 138 710 m 51 96 l 142 96 l 129 0 l 39 0 l 51 96 z "},",":{"ha":329,"x_min":33,"x_max":154,"o":"m 33 -140 q 59 -70 42 -118 q 85 0 76 -22 l 51 0 l 64 96 l 154 96 l 143 15 l 81 -140 l 33 -140 z "},"…":{"ha":1019,"x_min":40,"x_max":733,"o":"m 53 96 l 143 96 l 131 0 l 40 0 l 53 96 m 349 96 l 439 96 l 426 0 l 336 0 l 349 96 m 643 96 l 733 96 l 721 0 l 631 0 l 643 96 z "},"!":{"ha":374,"x_min":60,"x_max":285,"o":"m 285 953 l 161 196 l 104 196 l 196 953 l 285 953 m 74 96 l 164 96 l 150 0 l 60 0 l 74 96 z "},"¡":{"ha":353,"x_min":4,"x_max":231,"o":"m 140 708 l 231 708 l 217 613 l 126 613 l 140 708 m 129 513 l 188 513 l 96 -244 l 4 -244 l 129 513 z "},"#":{"ha":894,"x_min":19,"x_max":876,"o":"m 690 583 l 601 342 l 776 342 l 765 261 l 572 261 l 478 0 l 397 0 l 492 261 l 261 261 l 167 0 l 86 0 l 181 261 l 19 261 l 31 342 l 210 342 l 299 583 l 118 583 l 129 664 l 328 664 l 438 967 l 519 967 l 408 664 l 639 664 l 749 967 l 831 967 l 719 664 l 876 664 l 865 583 l 690 583 m 290 342 l 521 342 l 610 583 l 379 583 l 290 342 z "},".":{"ha":331,"x_min":40,"x_max":143,"o":"m 53 96 l 143 96 l 131 0 l 40 0 l 53 96 z "},"?":{"ha":697,"x_min":76,"x_max":636,"o":"m 272 231 l 288 339 q 326 428 294 392 q 415 508 357 464 q 492 573 463 544 q 541 643 521 601 q 561 742 561 685 q 525 853 561 806 q 394 900 489 900 q 216 828 269 900 q 153 686 163 757 q 151 662 151 674 q 151 646 151 650 l 76 646 q 79 692 76 675 q 112 798 85 736 q 209 914 139 860 q 401 968 279 968 q 588 899 539 968 q 636 749 636 831 q 614 628 636 679 q 560 546 592 578 q 476 472 528 514 q 394 399 422 431 q 360 321 367 367 l 347 231 l 272 231 m 244 96 l 335 96 l 322 0 l 232 0 l 244 96 z "},"¿":{"ha":686,"x_min":18,"x_max":578,"o":"m 410 614 l 319 614 l 332 710 l 422 710 l 410 614 m 382 479 l 367 371 q 328 282 360 318 q 239 201 297 246 q 163 137 192 165 q 113 67 133 108 q 93 -32 93 25 q 129 -143 93 -96 q 260 -190 165 -190 q 438 -119 385 -190 q 501 24 492 -47 q 503 48 503 36 q 503 64 503 60 l 578 64 q 575 18 578 35 q 542 -88 569 -26 q 445 -204 515 -150 q 253 -258 375 -258 q 67 -190 115 -258 q 18 -39 18 -121 q 40 81 18 31 q 94 164 63 132 q 178 238 126 196 q 260 311 232 279 q 294 389 288 343 l 307 479 l 382 479 z "},"\"":{"ha":504,"x_min":136,"x_max":432,"o":"m 146 749 l 175 953 l 247 953 l 218 749 l 178 575 l 136 575 l 146 749 m 331 749 l 360 953 l 432 953 l 403 749 l 363 575 l 321 575 l 331 749 z "},"'":{"ha":290,"x_min":136,"x_max":247,"o":"m 146 749 l 175 953 l 247 953 l 218 749 l 178 575 l 136 575 l 146 749 z "},";":{"ha":331,"x_min":33,"x_max":243,"o":"m 153 710 l 243 710 l 229 614 l 139 614 l 153 710 m 33 -140 q 60 -70 43 -118 q 86 0 78 -22 l 53 0 l 65 96 l 156 96 l 144 15 l 81 -140 l 33 -140 z "},"/":{"ha":679,"x_min":-62,"x_max":867,"o":"m 21 -237 l -62 -237 l 785 953 l 867 953 l 21 -237 z "},"_":{"ha":954,"x_min":49,"x_max":754,"o":"m 49 -169 l 60 -89 l 754 -89 l 742 -169 l 49 -169 z "},"{":{"ha":436,"x_min":42,"x_max":422,"o":"m 104 360 q 180 336 158 360 q 201 264 201 313 q 194 176 201 235 q 181 58 188 117 q 172 -25 178 28 q 165 -97 165 -78 q 197 -151 165 -135 q 264 -168 228 -168 l 257 -221 q 143 -190 192 -221 q 94 -92 94 -158 q 118 99 94 -56 q 129 168 121 114 q 138 243 138 222 q 110 294 138 278 q 42 311 82 311 l 57 421 q 135 440 100 421 q 175 500 169 460 l 217 797 q 288 919 229 886 q 422 953 346 953 l 415 900 q 338 881 376 900 q 293 818 300 861 l 242 515 q 200 407 229 442 q 106 372 171 372 l 104 360 z "},"}":{"ha":436,"x_min":-33,"x_max":347,"o":"m 285 372 q 209 396 231 372 q 188 468 188 419 q 194 556 188 497 q 208 674 201 615 q 217 757 211 704 q 224 829 224 810 q 192 883 224 867 q 125 900 161 900 l 132 953 q 246 922 197 953 q 294 824 294 890 q 271 633 294 788 q 260 564 268 618 q 251 489 251 510 q 279 438 251 454 q 347 421 307 421 l 332 311 q 254 292 289 311 q 214 232 219 272 l 172 -65 q 101 -187 160 -154 q -33 -221 43 -221 l -26 -168 q 51 -149 13 -168 q 96 -86 89 -129 l 147 217 q 189 325 160 290 q 283 360 218 360 l 285 372 z "},"[":{"ha":408,"x_min":31,"x_max":392,"o":"m 31 -224 l 196 953 l 392 953 l 385 900 l 263 900 l 111 -171 l 233 -171 l 226 -224 l 31 -224 z "},"]":{"ha":408,"x_min":-33,"x_max":328,"o":"m -33 -224 l -26 -171 l 96 -171 l 247 900 l 125 900 l 132 953 l 328 953 l 163 -224 l -33 -224 z "},"(":{"ha":401,"x_min":75,"x_max":426,"o":"m 75 246 q 386 953 75 635 l 426 953 q 224 612 301 796 q 146 240 146 428 q 177 1 146 117 q 261 -218 208 -115 l 221 -218 q 113 -2 150 -121 q 75 246 75 117 z "},")":{"ha":401,"x_min":-46,"x_max":306,"o":"m 306 488 q -6 -218 306 101 l -46 -218 q 156 122 78 -61 q 233 490 233 306 q 202 733 233 614 q 118 953 171 851 l 158 953 q 268 735 231 856 q 306 488 306 615 z "},"—":{"ha":1467,"x_min":88,"x_max":1363,"o":"m 88 332 l 99 411 l 1363 411 l 1350 332 l 88 332 z "},"–":{"ha":885,"x_min":83,"x_max":789,"o":"m 83 332 l 94 413 l 789 413 l 776 332 l 83 332 z "},"-":{"ha":542,"x_min":83,"x_max":446,"o":"m 94 415 l 446 415 l 433 329 l 83 329 l 94 415 z "},"­":{"ha":542,"x_min":83,"x_max":446,"o":"m 94 415 l 446 415 l 433 329 l 83 329 l 94 415 z "},"«":{"ha":636,"x_min":76,"x_max":592,"o":"m 213 226 l 76 468 l 281 710 l 338 710 l 169 468 l 269 226 l 213 226 m 467 226 l 329 468 l 535 710 l 592 710 l 424 468 l 524 226 l 467 226 z "},"»":{"ha":639,"x_min":51,"x_max":568,"o":"m 51 226 l 221 468 l 119 710 l 176 710 l 315 468 l 108 226 l 51 226 m 306 226 l 475 468 l 374 710 l 431 710 l 568 468 l 363 226 l 306 226 z "},"‹":{"ha":383,"x_min":76,"x_max":338,"o":"m 213 226 l 76 468 l 281 710 l 338 710 l 169 468 l 269 226 l 213 226 z "},"›":{"ha":386,"x_min":51,"x_max":314,"o":"m 51 226 l 221 468 l 119 710 l 176 710 l 314 468 l 108 226 l 51 226 z "},"„":{"ha":526,"x_min":33,"x_max":292,"o":"m 33 -140 q 59 -70 42 -118 q 85 0 76 -22 l 51 0 l 64 96 l 154 96 l 143 15 l 81 -140 l 33 -140 m 171 -140 q 197 -70 179 -118 q 222 0 214 -22 l 189 0 l 201 96 l 292 96 l 281 15 l 218 -140 l 171 -140 z "},"“":{"ha":508,"x_min":115,"x_max":374,"o":"m 236 953 q 210 883 228 931 q 185 813 193 835 l 218 813 l 206 717 l 115 717 l 126 797 l 189 953 l 236 953 m 374 953 q 348 883 365 931 q 322 813 331 835 l 356 813 l 343 717 l 253 717 l 264 797 l 326 953 l 374 953 z "},"”":{"ha":500,"x_min":133,"x_max":392,"o":"m 133 717 q 159 787 142 739 q 185 857 176 835 l 151 857 l 164 953 l 254 953 l 243 872 l 181 717 l 133 717 m 271 717 q 297 787 279 739 q 322 857 314 835 l 289 857 l 301 953 l 392 953 l 381 872 l 318 717 l 271 717 z "},"‘":{"ha":311,"x_min":115,"x_max":236,"o":"m 236 953 q 210 883 228 931 q 185 813 193 835 l 218 813 l 206 717 l 115 717 l 126 797 l 189 953 l 236 953 z "},"’":{"ha":303,"x_min":133,"x_max":254,"o":"m 133 717 q 159 787 142 739 q 185 857 176 835 l 151 857 l 164 953 l 254 953 l 243 872 l 181 717 l 133 717 z "},"‚":{"ha":329,"x_min":33,"x_max":154,"o":"m 33 -140 q 59 -70 42 -118 q 85 0 76 -22 l 51 0 l 64 96 l 154 96 l 143 15 l 81 -140 l 33 -140 z "}," ":{"ha":339,"x_min":0,"x_max":0,"o":""},"¢":{"ha":732,"x_min":94,"x_max":690,"o":"m 664 396 q 565 192 647 268 q 369 108 483 115 l 369 -8 l 297 -8 l 326 108 q 156 188 218 115 q 94 388 94 261 q 133 606 94 501 q 248 777 172 710 q 431 846 324 844 l 431 963 l 504 963 l 474 844 q 631 776 572 838 q 690 610 690 715 q 688 558 690 576 l 618 558 q 621 603 621 589 q 571 736 621 690 q 440 782 521 782 q 284 724 346 782 q 194 577 222 667 q 165 389 165 488 q 218 228 165 283 q 357 172 271 172 q 513 229 447 172 q 594 396 579 286 l 664 396 z "},"¤":{"ha":867,"x_min":56,"x_max":831,"o":"m 743 681 q 790 518 790 615 q 763 374 790 444 q 683 253 736 304 l 749 178 l 682 119 l 615 197 q 394 122 518 122 q 283 141 335 122 q 193 197 231 160 l 104 119 l 56 178 l 142 253 q 94 411 94 315 q 122 558 94 486 q 201 681 149 629 l 136 756 l 203 814 l 269 736 q 490 811 368 811 q 602 792 550 811 q 692 736 654 774 l 781 814 l 831 756 l 743 681 m 481 743 q 326 699 400 743 q 208 583 253 656 q 163 428 163 511 q 194 306 163 361 q 280 220 225 251 q 403 189 335 189 q 556 233 482 189 q 676 349 631 276 q 722 504 722 422 q 690 626 722 571 q 603 712 658 681 q 481 743 549 743 z "},"$":{"ha":758,"x_min":46,"x_max":763,"o":"m 326 26 q 122 81 197 31 q 46 238 46 132 q 48 275 46 256 q 53 303 50 294 l 124 303 q 118 274 121 292 q 115 239 115 256 q 360 96 115 96 q 573 142 490 96 q 656 301 656 188 q 623 384 656 353 q 542 432 590 415 q 413 468 493 449 q 264 511 319 490 q 169 573 208 532 q 131 682 131 614 q 223 866 131 803 q 456 933 315 929 l 456 1058 l 529 1058 l 497 933 q 690 883 618 931 q 763 739 763 835 q 757 686 763 725 l 688 686 q 693 736 693 722 q 631 835 693 801 q 469 868 569 868 q 280 828 354 868 q 206 696 206 788 q 237 621 206 650 q 315 576 268 592 q 440 542 363 560 q 593 497 536 518 q 690 433 650 475 q 731 319 731 390 q 626 100 731 171 q 369 26 522 29 l 369 -92 l 297 -92 l 326 26 z "},"€":{"ha":781,"x_min":32,"x_max":789,"o":"m 210 601 q 320 790 247 707 q 493 919 393 872 q 710 967 593 967 q 789 961 756 967 l 779 892 q 700 900 742 900 q 447 818 556 900 q 286 601 338 736 l 597 601 l 588 535 l 265 535 q 249 410 249 475 l 571 410 l 561 343 l 251 343 q 353 130 268 210 q 581 50 438 50 q 661 57 619 50 l 653 -7 q 572 -14 607 -14 q 370 31 457 -14 q 235 158 283 76 q 176 343 186 239 l 32 343 l 42 410 l 174 410 q 176 459 174 418 q 190 535 179 500 l 58 535 l 68 601 l 210 601 z "},"ƒ":{"ha":472,"x_min":-111,"x_max":461,"o":"m 453 925 q 410 940 436 933 q 369 947 385 947 q 309 928 333 947 q 278 854 285 910 l 257 710 l 422 710 l 414 646 l 249 646 l 143 -101 q 88 -217 132 -178 q -21 -256 44 -256 q -71 -249 -46 -256 q -111 -232 -96 -243 l -103 -169 q -60 -185 -86 -178 q -19 -192 -35 -192 q 41 -173 17 -192 q 72 -99 65 -154 l 178 646 l 100 646 l 108 710 l 186 710 l 207 857 q 262 972 218 933 q 371 1011 306 1011 q 421 1005 396 1011 q 461 988 446 999 l 453 925 z "},"£":{"ha":829,"x_min":36,"x_max":813,"o":"m 247 503 l 279 728 q 381 908 296 844 q 582 972 465 972 q 749 919 686 972 q 813 771 813 867 q 806 701 813 743 l 736 701 q 742 756 742 732 q 695 868 742 831 q 572 906 649 906 q 426 859 486 906 q 353 719 365 813 l 322 503 l 639 503 l 629 436 l 313 436 l 306 385 l 243 67 l 693 67 l 683 0 l 36 0 l 46 67 l 186 67 l 238 436 l 44 436 l 54 503 l 247 503 z "},"¥":{"ha":882,"x_min":69,"x_max":878,"o":"m 106 601 l 275 601 l 119 953 l 207 953 l 426 446 l 433 446 l 801 953 l 878 953 l 621 601 l 792 601 l 782 533 l 572 533 l 483 410 l 765 410 l 756 344 l 450 344 l 401 0 l 326 0 l 375 344 l 69 344 l 79 410 l 361 410 l 306 533 l 96 533 l 106 601 z "},"∙":{"ha":326,"x_min":111,"x_max":214,"o":"m 124 449 l 214 449 l 201 353 l 111 353 l 124 449 z "},"∕":{"ha":665,"x_min":-50,"x_max":728,"o":"m 15 0 l -50 0 l 667 953 l 728 953 l 15 0 z "},"+":{"ha":854,"x_min":57,"x_max":781,"o":"m 465 394 l 781 394 l 768 314 l 453 314 l 410 0 l 329 0 l 372 314 l 57 314 l 69 394 l 385 394 l 428 710 l 508 710 l 465 394 z "},"−":{"ha":854,"x_min":57,"x_max":779,"o":"m 69 393 l 779 393 l 767 314 l 57 314 l 69 393 z "},"×":{"ha":854,"x_min":100,"x_max":722,"o":"m 418 411 l 674 635 l 722 578 l 467 354 l 658 132 l 593 75 l 403 297 l 149 75 l 100 132 l 353 354 l 163 578 l 228 635 l 418 411 z "},"÷":{"ha":854,"x_min":57,"x_max":781,"o":"m 408 610 l 499 610 l 486 514 l 396 514 l 408 610 m 57 314 l 69 394 l 781 394 l 768 314 l 57 314 m 350 194 l 440 194 l 428 99 l 338 99 l 350 194 z "},"=":{"ha":854,"x_min":42,"x_max":788,"o":"m 82 456 l 93 536 l 788 536 l 776 456 l 82 456 m 42 167 l 53 247 l 747 247 l 736 167 l 42 167 z "},"≠":{"ha":854,"x_min":40,"x_max":788,"o":"m 613 536 l 788 536 l 776 456 l 547 456 l 376 247 l 747 247 l 735 167 l 310 167 l 175 0 l 76 0 l 213 167 l 40 167 l 53 247 l 279 247 l 451 456 l 82 456 l 93 536 l 517 536 l 660 710 l 754 710 l 613 536 z "},">":{"ha":854,"x_min":29,"x_max":792,"o":"m 774 292 l 29 18 l 40 104 l 718 353 l 111 601 l 122 688 l 792 414 l 774 292 z "},"<":{"ha":854,"x_min":43,"x_max":806,"o":"m 61 414 l 806 688 l 794 601 l 118 353 l 724 104 l 713 18 l 43 292 l 61 414 z "},"≥":{"ha":854,"x_min":22,"x_max":796,"o":"m 779 356 l 38 110 l 50 196 l 722 417 l 111 638 l 124 724 l 796 478 l 779 356 m 731 0 l 22 0 l 33 79 l 742 79 l 731 0 z "},"≤":{"ha":854,"x_min":14,"x_max":824,"o":"m 82 478 l 824 724 l 811 638 l 139 417 l 750 196 l 738 110 l 65 356 l 82 478 m 25 79 l 733 79 l 722 0 l 14 0 l 25 79 z "},"±":{"ha":854,"x_min":22,"x_max":792,"o":"m 476 478 l 792 478 l 781 397 l 465 397 l 432 167 l 351 167 l 385 397 l 69 397 l 81 478 l 396 478 l 428 710 l 508 710 l 476 478 m 22 0 l 33 81 l 728 81 l 717 0 l 22 0 z "},"≈":{"ha":854,"x_min":-10,"x_max":842,"o":"m 831 504 q 793 473 831 501 q 701 420 756 444 q 589 396 647 396 q 515 408 550 396 q 433 442 479 419 q 347 476 382 465 q 271 488 311 488 q 158 463 213 488 q 67 410 104 439 q 29 379 29 382 l 42 463 q 79 494 42 465 q 171 547 117 522 q 283 571 225 571 q 358 559 322 571 q 439 525 393 547 q 526 490 492 501 q 600 479 560 479 q 713 503 658 479 q 804 556 767 528 q 842 588 842 585 l 831 504 m 790 224 q 753 192 790 221 q 661 140 715 164 q 549 115 607 115 q 474 127 510 115 q 393 161 439 139 q 306 196 340 185 q 232 207 272 207 q 119 183 174 207 q 28 130 65 158 q -10 99 -10 101 l 1 182 q 39 213 1 185 q 131 266 76 242 q 243 290 185 290 q 317 278 282 290 q 399 244 353 267 q 485 210 450 221 q 561 199 521 199 q 674 223 619 199 q 765 276 728 247 q 803 307 803 304 l 790 224 z "},"~":{"ha":960,"x_min":74,"x_max":886,"o":"m 875 436 q 838 405 875 433 q 746 352 800 376 q 633 328 692 328 q 559 340 594 328 q 478 374 524 351 q 391 408 426 397 q 315 419 356 419 q 203 395 257 419 q 111 342 149 371 q 74 311 74 314 l 85 394 q 122 426 85 397 q 214 478 160 454 q 326 503 268 503 q 401 491 365 503 q 482 457 436 479 q 569 422 533 433 q 644 411 604 411 q 757 435 703 411 q 849 488 811 460 q 886 519 886 517 l 875 436 z "},"¬":{"ha":854,"x_min":61,"x_max":783,"o":"m 735 256 l 654 256 l 692 522 l 61 522 l 72 604 l 783 604 l 735 256 z "},"∞":{"ha":1064,"x_min":63,"x_max":994,"o":"m 994 428 q 963 301 994 358 q 876 209 932 243 q 753 175 821 175 q 640 214 690 175 q 524 340 590 253 q 378 217 442 260 q 239 175 314 175 q 113 227 164 175 q 63 356 63 279 q 97 485 63 429 q 187 570 131 540 q 308 600 243 600 q 432 556 379 600 q 540 435 485 513 l 554 447 q 691 561 632 522 q 822 600 750 600 q 948 553 901 600 q 994 428 994 506 m 257 235 q 356 267 308 235 q 468 358 404 300 l 496 383 l 489 394 q 397 505 440 467 q 290 543 354 543 q 208 517 246 543 q 149 449 171 492 q 128 361 128 407 q 163 271 128 307 q 257 235 197 235 m 807 543 q 708 510 757 543 q 603 422 658 476 q 567 390 607 426 q 675 269 635 303 q 767 235 715 235 q 853 262 817 235 q 908 331 889 289 q 928 417 928 374 q 895 510 928 476 q 807 543 863 543 z "},"∫":{"ha":369,"x_min":-69,"x_max":388,"o":"m 182 886 q 255 1003 193 964 q 388 1042 317 1042 l 379 989 q 326 978 357 989 q 272 947 296 968 q 244 897 249 926 q 190 349 231 757 q 132 -192 150 -60 q 61 -309 121 -271 q -69 -347 1 -347 l -61 -294 q -11 -283 -40 -294 q 41 -251 18 -272 q 68 -200 64 -231 q 123 347 82 -60 q 182 886 164 754 z "},"Ω":{"ha":1022,"x_min":43,"x_max":893,"o":"m 893 633 q 845 305 893 471 q 690 61 797 139 l 789 67 l 851 67 l 843 0 l 500 0 l 506 40 q 696 142 619 54 q 799 425 772 231 q 819 631 819 575 q 753 840 819 781 q 571 900 688 900 q 342 815 432 900 q 221 511 251 731 q 205 385 210 431 q 200 314 200 339 q 249 115 200 178 q 392 40 299 53 l 386 0 l 43 0 l 51 67 l 114 67 l 215 61 q 128 324 128 146 q 144 494 128 379 q 296 864 185 761 q 579 967 407 967 q 810 892 726 967 q 893 633 893 818 z "},"∆":{"ha":938,"x_min":25,"x_max":822,"o":"m 35 67 l 492 953 l 614 953 l 822 67 l 813 0 l 25 0 l 35 67 m 125 76 l 733 76 l 543 888 l 125 76 z "},"∏":{"ha":1040,"x_min":97,"x_max":997,"o":"m 829 899 l 685 -133 l 607 -133 l 751 899 l 333 899 l 189 -133 l 111 -133 l 256 899 l 97 899 l 107 965 l 997 965 l 988 899 l 829 899 z "},"∑":{"ha":840,"x_min":-39,"x_max":796,"o":"m -39 -133 l -33 -90 l 432 419 l 126 931 l 131 965 l 796 965 l 786 899 l 244 899 l 244 893 l 522 426 l 85 -53 l 86 -57 l 674 -57 l 663 -133 l -39 -133 z "},"√":{"ha":785,"x_min":-28,"x_max":804,"o":"m 228 -203 l 92 426 l -17 388 l -28 446 l 163 515 l 272 0 q 281 -93 281 -75 l 733 1118 l 804 1118 l 313 -203 l 228 -203 z "},"µ":{"ha":831,"x_min":65,"x_max":774,"o":"m 375 50 q 490 79 436 50 q 581 160 544 108 q 625 274 617 211 l 686 710 l 757 710 q 669 83 669 92 q 701 50 669 50 q 774 72 735 50 l 765 13 q 672 -14 721 -14 q 616 11 633 -14 q 599 75 599 36 q 601 106 599 86 q 492 17 557 49 q 358 -14 428 -14 q 247 8 297 -14 q 169 71 196 29 q 170 60 169 68 q 171 40 171 53 q 168 1 171 26 l 136 -224 l 65 -224 l 197 710 l 268 710 q 201 217 201 246 q 247 92 201 135 q 375 50 293 50 z "},"∂":{"ha":789,"x_min":44,"x_max":718,"o":"m 463 967 q 648 897 578 967 q 718 714 718 828 q 714 660 718 688 l 663 293 q 600 132 650 201 q 475 24 550 63 q 313 -14 400 -14 q 118 56 192 -14 q 44 240 44 125 q 92 421 44 339 q 218 549 139 503 q 388 596 297 596 q 522 563 461 596 q 613 474 582 531 l 640 668 q 643 706 643 693 q 591 846 643 792 q 451 900 539 900 l 340 900 l 350 967 l 463 967 m 322 53 q 457 90 396 53 q 554 192 518 128 q 590 335 590 257 q 535 475 590 421 q 389 529 479 529 q 255 491 317 529 q 156 388 193 453 q 119 250 119 324 q 176 108 119 163 q 322 53 232 53 z "},"%":{"ha":972,"x_min":83,"x_max":918,"o":"m 418 633 q 358 510 407 553 q 229 467 308 467 q 122 506 161 467 q 83 607 83 546 q 85 633 83 624 l 107 786 q 169 910 119 868 q 297 953 218 953 q 403 913 365 953 q 442 813 442 874 q 440 786 442 794 l 418 633 m 188 0 l 104 0 l 818 953 l 900 953 l 188 0 m 371 792 q 372 810 372 797 q 351 867 372 846 q 288 889 329 889 q 213 861 243 889 q 176 792 182 833 l 154 628 q 153 611 153 622 q 176 553 153 576 q 238 531 199 531 q 313 558 283 531 q 349 628 343 586 l 371 792 m 894 165 q 833 42 883 85 q 704 -1 783 -1 q 598 38 636 -1 q 560 139 560 78 q 561 165 560 156 l 583 318 q 644 441 594 397 q 772 485 693 485 q 879 445 840 485 q 918 344 918 406 q 917 318 918 326 l 894 165 m 847 324 q 849 342 849 329 q 827 399 849 378 q 764 421 806 421 q 689 393 719 421 q 653 324 658 365 l 631 160 q 629 143 629 154 q 652 85 629 108 q 714 63 675 63 q 790 90 760 63 q 825 160 819 118 l 847 324 z "},"‰":{"ha":1436,"x_min":86,"x_max":1381,"o":"m 421 635 q 360 511 410 554 q 231 468 310 468 q 124 508 163 468 q 86 608 86 547 q 88 635 86 625 l 110 788 q 170 910 121 867 q 299 954 219 954 q 406 915 367 954 q 444 814 444 875 q 443 788 444 796 l 421 635 m 192 0 l 108 0 l 822 953 l 904 953 l 192 0 m 374 793 q 375 811 375 799 q 353 869 375 847 q 290 890 332 890 q 215 863 246 890 q 179 793 185 835 l 157 629 q 156 613 156 624 q 178 555 156 578 q 240 532 201 532 q 316 560 286 532 q 351 629 346 588 l 374 793 m 899 165 q 838 42 888 85 q 708 -1 788 -1 q 602 38 640 -1 q 564 139 564 78 q 565 165 564 156 l 588 318 q 648 441 599 397 q 776 485 697 485 q 883 445 844 485 q 922 344 922 406 q 921 318 922 326 l 899 165 m 1357 165 q 1296 42 1346 85 q 1167 -1 1246 -1 q 1060 38 1099 -1 q 1022 139 1022 78 q 1024 165 1022 156 l 1046 318 q 1106 441 1057 397 q 1235 485 1156 485 q 1342 445 1303 485 q 1381 344 1381 406 q 1379 318 1381 326 l 1357 165 m 851 324 q 853 342 853 329 q 831 399 853 378 q 768 421 810 421 q 693 393 724 421 q 657 324 663 365 l 635 160 q 633 143 633 154 q 656 85 633 108 q 718 63 679 63 q 794 90 764 63 q 829 160 824 118 l 851 324 m 1310 324 q 1311 342 1311 329 q 1290 399 1311 378 q 1226 421 1268 421 q 1151 393 1182 421 q 1115 324 1121 365 l 1093 160 q 1092 143 1092 154 q 1115 85 1092 108 q 1176 63 1138 63 q 1252 90 1222 63 q 1288 160 1282 118 l 1310 324 z "},"◊":{"ha":679,"x_min":50,"x_max":622,"o":"m 207 0 l 50 476 l 342 953 l 464 953 l 622 476 l 329 0 l 207 0 m 136 476 l 278 65 l 536 476 l 393 888 l 136 476 z "},"@":{"ha":1232,"x_min":83,"x_max":1221,"o":"m 931 92 q 1058 167 1008 92 q 1130 346 1108 242 q 1151 542 1151 450 q 744 903 1151 903 q 439 828 572 903 q 229 602 306 753 q 153 232 153 451 q 251 -53 153 42 q 551 -147 349 -147 q 675 -134 601 -147 q 786 -103 749 -121 l 776 -175 q 660 -201 732 -190 q 542 -212 589 -212 q 202 -105 321 -212 q 83 225 83 3 q 160 608 83 440 q 388 872 236 776 q 756 968 539 968 q 1095 866 969 968 q 1221 553 1221 764 q 1184 281 1221 399 q 1080 97 1147 163 q 925 32 1013 32 q 839 56 864 32 q 814 125 814 79 q 817 160 814 135 q 547 31 719 31 q 410 65 464 31 q 356 181 356 99 q 419 343 356 289 q 585 413 482 397 q 856 429 689 429 l 867 514 q 869 554 869 542 q 831 639 869 614 q 708 664 793 664 q 563 631 619 664 q 496 528 506 599 l 493 507 l 426 507 q 508 666 426 608 q 717 724 590 724 q 885 684 829 724 q 940 564 940 644 q 904 292 940 536 q 882 131 882 146 q 931 92 882 92 m 847 371 q 613 360 699 371 q 476 310 526 349 q 426 190 426 271 q 462 115 426 139 q 569 90 497 90 q 688 116 631 90 q 787 194 746 142 q 840 325 828 247 l 847 371 z "},"&":{"ha":918,"x_min":81,"x_max":863,"o":"m 583 886 q 478 900 538 900 q 360 877 415 900 q 270 808 304 854 q 236 694 236 761 q 295 565 236 610 q 444 521 354 521 l 626 521 l 683 747 l 729 747 l 697 521 l 863 521 l 854 457 l 689 457 l 625 0 l 365 0 q 161 61 242 0 q 81 228 81 122 q 138 400 81 336 q 290 489 196 464 l 290 494 q 194 573 226 531 q 161 686 161 615 q 206 837 161 774 q 326 933 251 900 q 486 967 400 967 q 593 956 542 967 l 583 886 m 429 457 q 233 402 313 457 q 153 235 153 347 q 214 109 153 154 q 374 64 275 64 l 563 64 l 618 457 l 429 457 z "},"¶":{"ha":728,"x_min":85,"x_max":726,"o":"m 306 346 q 147 433 208 360 q 85 606 85 506 q 132 788 85 708 q 259 910 179 867 q 435 953 339 953 l 726 953 l 717 885 l 625 885 l 467 -242 l 394 -242 l 553 885 l 453 885 l 294 -242 l 222 -242 l 306 346 z "},"§":{"ha":717,"x_min":14,"x_max":669,"o":"m 625 357 q 453 139 625 219 q 528 69 501 107 q 554 -21 554 31 q 519 -140 554 -86 q 415 -225 485 -193 q 249 -257 346 -257 q 72 -206 129 -257 q 14 -86 14 -154 q 16 -62 14 -74 q 19 -46 18 -51 l 89 -46 q 85 -81 85 -68 q 123 -158 85 -124 q 269 -193 161 -193 q 418 -154 354 -193 q 482 -35 482 -115 q 454 39 482 7 q 387 94 426 71 q 278 150 347 117 q 162 208 206 183 q 88 269 118 233 q 58 353 58 306 q 101 476 58 425 q 229 571 144 528 q 155 641 182 603 q 128 731 128 679 q 163 849 128 794 q 268 935 199 903 q 435 967 338 967 q 612 915 554 967 q 669 796 669 864 q 667 772 669 783 q 664 756 665 761 l 594 756 q 599 789 599 778 q 560 868 599 833 q 414 903 522 903 q 266 864 331 903 q 201 743 201 825 q 229 671 201 703 q 297 616 257 639 q 406 560 336 593 q 522 500 479 525 q 595 440 565 475 q 625 357 625 404 m 408 164 q 510 234 469 190 q 551 336 551 278 q 526 402 551 374 q 465 451 501 431 q 364 501 429 472 q 274 544 303 529 q 132 372 132 483 q 178 283 132 318 q 319 207 225 249 q 408 164 393 172 z "},"©":{"ha":1090,"x_min":64,"x_max":1047,"o":"m 1047 478 q 981 231 1047 343 q 802 52 915 118 q 556 -14 689 -14 q 308 52 421 -14 q 130 231 196 118 q 64 478 64 343 q 130 724 64 611 q 309 901 196 836 q 556 967 422 967 q 802 901 689 967 q 981 723 915 835 q 1047 478 1047 611 m 1011 478 q 949 704 1011 600 q 783 869 888 808 q 556 931 679 931 q 327 869 432 931 q 161 705 222 808 q 100 478 100 601 q 161 249 100 354 q 327 83 222 144 q 556 22 432 22 q 783 83 679 22 q 949 249 888 144 q 1011 478 1011 354 m 732 557 q 684 682 732 639 q 561 725 636 725 q 438 682 486 725 q 390 557 390 639 l 390 399 q 438 272 390 314 q 561 229 486 229 q 686 274 639 229 q 733 406 733 319 l 782 406 q 721 235 782 292 q 561 179 660 179 q 397 235 460 179 q 335 408 335 292 l 335 546 q 398 718 335 661 q 561 775 461 775 q 721 718 660 775 q 782 547 782 661 l 732 547 l 732 557 z "},"®":{"ha":1090,"x_min":64,"x_max":1047,"o":"m 1047 478 q 981 231 1047 343 q 802 52 915 118 q 556 -14 689 -14 q 308 52 421 -14 q 130 231 196 118 q 64 478 64 343 q 130 724 64 611 q 309 901 196 836 q 556 967 422 967 q 802 901 689 967 q 981 723 915 835 q 1047 478 1047 611 m 1011 478 q 949 704 1011 600 q 783 869 888 808 q 556 931 679 931 q 327 869 432 931 q 161 705 222 808 q 100 478 100 601 q 161 249 100 354 q 327 83 222 144 q 556 22 432 22 q 783 83 679 22 q 949 249 888 144 q 1011 478 1011 354 m 794 190 q 784 188 792 189 q 768 186 776 186 q 699 299 699 186 q 666 424 699 393 q 597 456 633 456 l 424 456 l 424 188 l 367 188 l 367 760 l 601 760 q 714 719 667 760 q 761 615 761 679 q 735 533 761 568 q 674 482 710 497 l 674 476 q 728 428 704 464 q 751 318 751 393 q 758 243 751 265 q 794 210 765 221 l 794 190 m 604 504 q 678 535 647 504 q 710 608 710 565 q 679 681 710 651 q 604 710 649 710 l 424 710 l 424 504 l 604 504 z "},"™":{"ha":1247,"x_min":128,"x_max":1147,"o":"m 365 900 l 296 401 l 238 401 l 307 900 l 128 900 l 135 953 l 550 953 l 543 900 l 365 900 m 1076 871 l 929 619 q 800 401 840 472 l 758 401 l 617 865 l 551 401 l 501 401 l 578 953 l 657 953 l 796 481 l 1069 953 l 1147 953 l 1071 401 l 1014 401 l 1076 871 z "},"°":{"ha":561,"x_min":128,"x_max":544,"o":"m 544 771 q 516 663 544 714 q 436 581 488 613 q 321 550 385 550 q 222 576 267 550 q 153 646 178 601 q 128 744 128 690 q 157 856 128 804 q 237 937 186 907 q 350 967 288 967 q 449 940 404 967 q 519 869 493 914 q 544 771 544 824 m 346 904 q 270 883 307 904 q 210 826 233 863 q 188 746 188 790 q 227 649 188 689 q 325 610 267 610 q 435 657 389 610 q 482 769 482 704 q 443 865 482 826 q 346 904 404 904 z "},"|":{"ha":403,"x_min":142,"x_max":393,"o":"m 142 -276 l 321 1000 l 393 1000 l 214 -276 l 142 -276 z "},"¦":{"ha":374,"x_min":68,"x_max":293,"o":"m 203 953 l 293 953 l 242 589 l 151 589 l 203 953 m 119 364 l 210 364 l 158 0 l 68 0 l 119 364 z "},"†":{"ha":710,"x_min":57,"x_max":682,"o":"m 390 642 l 288 -243 l 197 -243 l 344 642 l 57 619 l 69 708 l 350 686 l 365 953 l 456 953 l 396 686 l 682 708 l 669 619 l 390 642 z "},"ℓ":{"ha":653,"x_min":44,"x_max":613,"o":"m 213 204 q 207 143 207 158 q 233 69 207 89 q 297 50 258 50 q 429 72 350 50 l 419 10 q 361 -8 396 -1 q 294 -14 326 -14 q 178 24 221 -14 q 136 138 136 63 q 140 194 136 167 l 158 319 l 44 319 l 53 382 l 167 382 l 203 642 l 213 711 q 433 972 249 972 q 566 919 519 972 q 613 764 613 865 q 575 573 613 672 q 451 401 538 474 q 229 321 365 328 l 213 204 m 238 383 q 416 452 347 390 q 514 598 485 514 q 543 761 543 682 q 435 910 543 910 q 334 860 371 910 q 283 708 297 810 l 274 639 l 238 383 z "},"‡":{"ha":738,"x_min":-10,"x_max":701,"o":"m 615 89 l 603 0 l 322 22 l 307 -244 l 217 -244 l 276 22 l -10 0 l 3 89 l 282 67 l 301 356 l 364 642 l 76 619 l 89 708 l 369 686 l 385 953 l 475 953 l 415 686 l 701 708 l 689 619 l 410 642 l 392 356 l 328 67 l 615 89 z "},"℮":{"ha":1083,"x_min":140,"x_max":985,"o":"m 563 967 q 784 912 689 967 q 932 754 879 857 q 985 511 985 651 l 985 439 l 276 439 l 276 196 q 401 86 324 124 q 576 49 479 49 q 743 84 669 49 q 864 188 817 119 l 917 146 q 772 27 858 68 q 574 -14 685 -14 q 347 41 446 -14 q 194 199 249 96 q 140 443 140 303 l 140 510 q 193 753 140 650 q 341 912 246 857 q 563 967 436 967 m 276 506 l 844 506 l 844 769 q 726 869 799 835 q 564 904 654 904 q 397 868 471 904 q 276 763 322 832 l 276 506 z "},"^":{"ha":828,"x_min":17,"x_max":686,"o":"m 511 710 l 686 0 l 600 0 l 442 644 l 103 0 l 17 0 l 389 710 l 511 710 z "},"̦":{"ha":0,"x_min":-326,"x_max":-204,"o":"m -326 -347 q -299 -277 -317 -325 q -274 -207 -282 -229 l -307 -207 l -294 -111 l -204 -111 l -215 -192 l -279 -347 l -326 -347 z "},"ˉ":{"ha":639,"x_min":94,"x_max":547,"o":"m 94 960 l 106 1022 l 547 1022 l 536 960 l 94 960 z "},"´":{"ha":463,"x_min":78,"x_max":331,"o":"m 78 799 l 240 1000 l 331 1000 l 329 996 l 147 799 l 78 799 z "},"˘":{"ha":722,"x_min":113,"x_max":649,"o":"m 357 851 q 234 875 290 851 q 145 936 178 899 q 113 1013 113 974 q 114 1024 113 1019 l 192 1024 q 249 947 201 974 q 367 919 296 919 q 492 947 436 919 q 571 1024 547 974 l 649 1024 q 601 943 643 983 q 493 877 558 903 q 357 851 428 851 z "},"ˇ":{"ha":744,"x_min":140,"x_max":593,"o":"m 140 1000 l 224 1000 l 347 865 l 510 1000 l 593 1000 l 378 799 l 297 799 l 140 1000 z "},"¸":{"ha":486,"x_min":82,"x_max":371,"o":"m 90 -192 q 183 -210 121 -210 q 265 -190 229 -210 q 300 -126 300 -171 q 278 -85 300 -100 q 228 -71 257 -71 l 197 -71 l 204 -24 q 327 -42 283 -24 q 371 -125 371 -61 q 313 -240 371 -206 q 188 -274 254 -274 q 82 -256 126 -274 l 90 -192 z "},"ˆ":{"ha":744,"x_min":111,"x_max":564,"o":"m 326 1000 l 407 1000 l 564 799 l 481 799 l 357 933 l 194 799 l 111 799 l 326 1000 z "},"¨":{"ha":611,"x_min":101,"x_max":449,"o":"m 114 1000 l 204 1000 l 192 904 l 101 904 l 114 1000 m 358 1000 l 449 1000 l 436 904 l 346 904 l 358 1000 z "},"˙":{"ha":389,"x_min":146,"x_max":249,"o":"m 158 939 l 249 939 l 236 843 l 146 843 l 158 939 z "},"`":{"ha":463,"x_min":106,"x_max":301,"o":"m 232 799 l 106 996 l 107 1000 l 197 1000 l 301 799 l 232 799 z "},"˝":{"ha":614,"x_min":54,"x_max":479,"o":"m 54 799 l 217 1000 l 306 1000 l 306 994 l 124 799 l 54 799 m 228 799 l 390 1000 l 479 1000 l 479 994 l 297 799 l 228 799 z "},"¯":{"ha":639,"x_min":94,"x_max":547,"o":"m 94 960 l 106 1022 l 547 1022 l 536 960 l 94 960 z "},"˛":{"ha":472,"x_min":103,"x_max":346,"o":"m 346 -165 q 224 -199 288 -199 q 138 -179 172 -199 q 103 -115 103 -160 q 127 -52 103 -79 q 193 0 151 -25 l 263 0 l 257 -3 q 203 -44 222 -24 q 183 -93 183 -64 q 199 -128 183 -118 q 238 -139 214 -139 q 333 -119 272 -139 l 346 -165 z "},"˚":{"ha":472,"x_min":99,"x_max":382,"o":"m 382 917 q 335 804 382 851 q 221 757 288 757 q 133 791 168 757 q 99 878 99 825 q 122 958 99 922 q 182 1015 144 994 q 261 1036 219 1036 q 347 1002 313 1036 q 382 917 382 968 m 228 807 q 301 838 269 807 q 332 910 332 868 q 310 965 332 943 q 254 986 288 986 q 181 956 213 986 q 149 883 149 925 q 172 828 149 850 q 228 807 194 807 z "},"˜":{"ha":506,"x_min":-11,"x_max":507,"o":"m 507 994 q 463 917 501 953 q 351 881 425 881 q 294 886 321 881 q 228 904 268 892 q 125 925 165 925 q 70 915 90 925 q 40 881 50 904 l -11 881 q 33 958 -6 922 q 144 994 71 994 q 201 989 175 994 q 268 971 228 983 q 371 950 331 950 q 426 960 406 950 q 456 994 446 971 l 507 994 z "}}}
